<?xml version="1.0" standalone="no"?>
<!DOCTYPE svg PUBLIC "-//W3C//DTD SVG 1.1//EN" "http://www.w3.org/Graphics/SVG/1.1/DTD/svg11.dtd" >
<svg xmlns="http://www.w3.org/2000/svg" xmlns:xlink="http://www.w3.org/1999/xlink" version="1.1">
<metadata>
Created by FontForge 20170731 at Mon May  7 12:31:06 2007
 By Aleksey,,,
Copyright (c) 1991, 1993, 1996, 1997, 1998, 1999 Adobe Systems Incorporated.  All Rights Reserved.Arial is a trademark of The Monotype Corporation, registered in the US Patent and Trademark Office and elsewhere.
</metadata>
<defs>
<font id="Arial-ItalicMT" horiz-adv-x="556" >
  <font-face 
    font-family="Arial MT"
    font-weight="500"
    font-style="italic"
    font-stretch="normal"
    units-per-em="1000"
    panose-1="0 0 0 0 0 0 0 0 0 0"
    ascent="800"
    descent="-200"
    x-height="518"
    cap-height="716"
    bbox="-261 -250 1059 936"
    underline-thickness="50"
    underline-position="-200"
    slope="-12"
    unicode-range="U+0020-FB02"
  />
<missing-glyph horiz-adv-x="278" 
 />
    <glyph glyph-name=".notdef" horiz-adv-x="278" 
 />
    <glyph glyph-name=".null" horiz-adv-x="0" 
 />
    <glyph glyph-name="nonmarkingreturn" horiz-adv-x="333" 
 />
    <glyph glyph-name="space" unicode=" " horiz-adv-x="278" 
d="M182 0z" />
    <glyph glyph-name="exclam" unicode="!" horiz-adv-x="278" 
d="M55 0l21 100h100l-21 -100h-100zM111 181l54 388l31 147h107l-33 -159l-104 -376h-55z" />
    <glyph glyph-name="quotedbl" unicode="&#x22;" horiz-adv-x="355" 
d="M297 465l5 137l25 117h100l-25 -117l-51 -137h-54zM125 465l5 137l25 117h100l-25 -117l-51 -137h-54z" />
    <glyph glyph-name="numbersign" unicode="#" 
d="M96 -12l43 208h-83v72h97l37 178h-134v72h148l43 210h73l-42 -210h153l43 210h73l-42 -210h85v-72h-100l-36 -178h136v-72h-151l-42 -208h-74l43 208h-154l-42 -208h-74zM263 446l-36 -178h153l37 178h-154z" />
    <glyph glyph-name="dollar" unicode="$" 
d="M53 207l89 5q4 -48 23.5 -81.5t37 -45.5t36.5 -18l56 270q-22 9 -36 16t-40 24.5t-41.5 36.5t-28 49.5t-12.5 66.5q0 73 62 136t178 60l8 38h48l-9 -45q134 -33 151 -176l-85 -5q-12 85 -81 109l-51 -246q25 -10 40.5 -17.5t43.5 -25.5t44.5 -37t30 -49.5t13.5 -65.5
q0 -36 -15 -73.5t-44 -73t-81.5 -55.5t-118.5 -16l-17 -84h-49l19 90q-76 15 -121 74.5t-50 138.5zM313 420l49 235q-56 2 -96.5 -30.5t-40.5 -88.5q0 -26 7.5 -45.5t23 -33.5t26.5 -20.5t31 -16.5zM340 318l-54 -260q68 -2 112 41t44 98q0 27 -8.5 47.5t-27 35t-30.5 21
t-36 17.5z" />
    <glyph glyph-name="percent" unicode="%" horiz-adv-x="889" 
d="M526 124q0 10 2.5 30t15.5 61.5t34 70.5q45 64 127 64q139 0 139 -137q0 -6 -0.5 -16t-4.5 -34.5t-10.5 -47t-20.5 -49.5t-33 -47t-49.5 -33t-68.5 -13q-131 0 -131 151zM602 108q0 -76 57 -76q34 0 58 26.5t34 64t13.5 62t3.5 37.5q0 23 -7.5 38.5t-19 21.5t-19 7.5
t-14.5 1.5q-30 0 -52.5 -22.5t-33 -55.5t-15.5 -60t-5 -45zM109 496q0 10 2.5 30t15.5 61t34 70q48 65 127 65q140 0 140 -137q0 -11 -1.5 -29t-12 -58t-28 -71.5t-56 -56.5t-90.5 -25q-131 0 -131 151zM185 479q0 -75 57 -75q34 0 58.5 26.5t34 64.5t13.5 62.5t4 37.5
q0 39 -19 53.5t-41 14.5q-30 0 -53 -23t-33.5 -56t-15.5 -60t-5 -45zM142 -27l591 755h80l-589 -755h-82z" />
    <glyph glyph-name="ampersand" unicode="&#x26;" horiz-adv-x="667" 
d="M267 421l-6 14q-1 2 -6 13t-6 14t-5 13t-5 14.5t-3.5 14t-3.5 16.5t-2 16t-1 19q0 65 49 119t130 54q73 0 114 -42t41 -95q0 -35 -15.5 -65t-44.5 -55t-55.5 -41.5t-63.5 -35.5q59 -110 122 -190q36 44 69 102l76 -39q-34 -72 -89 -133q29 -37 83 -98l-67 -53
q-47 39 -82 87q-33 -27 -55 -42t-62 -29t-84 -14q-96 0 -156 56.5t-60 144.5q0 42 14 78.5t32 59.5t47.5 44.5t48 31t46.5 21.5zM445 138q-94 123 -142 214q-28 -13 -44.5 -22.5t-41.5 -28.5t-37.5 -45.5t-12.5 -59.5q0 -57 39 -94.5t93 -37.5q75 0 146 74zM351 460
q124 64 124 129q0 29 -19.5 48.5t-48.5 19.5q-36 0 -61 -28.5t-25 -64.5q0 -46 30 -104z" />
    <glyph glyph-name="quotesingle" unicode="'" horiz-adv-x="191" 
d="M130 462l5 137l25 117h100l-25 -117l-51 -137h-54z" />
    <glyph glyph-name="parenleft" unicode="(" horiz-adv-x="333" 
d="M344 728h69q-18 -19 -39.5 -46.5t-60 -89t-68 -127t-52 -158t-22.5 -184.5q0 -160 56 -333h-66q-77 168 -77 345q0 83 17.5 161t40 133t61.5 115.5t65 93t67 79.5q2 4 9 11z" />
    <glyph glyph-name="parenright" unicode=")" horiz-adv-x="333" 
d="M15 -210h-69q18 19 39.5 46.5t60 89t68 127t52 158t22.5 184.5q0 160 -56 333h66q77 -168 77 -345q0 -83 -17.5 -161t-40 -133t-61.5 -115.5t-65 -93t-67 -79.5q-2 -4 -9 -11z" />
    <glyph glyph-name="asterisk" unicode="*" horiz-adv-x="389" 
d="M115 583l22 70q71 -24 113 -47q-10 99 -10 121l71 1q-5 -74 -10 -110l-1 -11q35 18 115 47l23 -70l-68 -18q-21 -5 -54 -9q11 -10 31.5 -32t36.5 -41l17 -19l-59 -42q-25 34 -67 105q-37 -70 -63 -105l-58 41l6 7v1q5 5 35 41q21 25 40 44q-57 10 -120 26z" />
    <glyph glyph-name="plus" unicode="+" horiz-adv-x="584" 
d="M294 116v196h-196v82h196v196h82v-196h196v-82h-196v-196h-82z" />
    <glyph glyph-name="comma" unicode="," horiz-adv-x="278" 
d="M59 0l21 100h101l-18 -87q-29 -145 -134 -158l8 39q58 14 77 106h-55z" />
    <glyph glyph-name="hyphen" unicode="-" horiz-adv-x="333" 
d="M46 215l19 88h269l-18 -88h-270z" />
    <glyph glyph-name="period" unicode="." horiz-adv-x="278" 
d="M58 0l21 100h100l-21 -100h-100z" />
    <glyph glyph-name="slash" unicode="/" horiz-adv-x="278" 
d="M0 -24l207 740h71l-207 -740h-71z" />
    <glyph glyph-name="zero" unicode="0" 
d="M74 235q0 70 18.5 150.5t53.5 156.5t95.5 126.5t133.5 50.5q32 0 63 -11t61.5 -36t49.5 -74t19 -116q0 -59 -11 -124t-35 -131.5t-58.5 -119.5t-86.5 -86t-113 -33q-78 0 -134 61.5t-56 185.5zM158 212q0 -78 30 -116t80 -38q58 0 103.5 56t68 136t33.5 146t11 106
q0 147 -108 147q-52 0 -93.5 -43.5t-64 -103t-37 -127.5t-19 -108.5t-4.5 -54.5z" />
    <glyph glyph-name="one" unicode="1" 
d="M243 0l113 539l-2 2q-67 -56 -204 -93l17 80q66 27 146.5 80t116.5 111h52l-151 -719h-88z" />
    <glyph glyph-name="two" unicode="2" 
d="M214 501l-86 12q11 85 68 145.5t158 60.5q97 0 153.5 -56t56.5 -136q0 -95 -95 -183q-34 -32 -173 -142q-8 -5 -25 -20t-44.5 -45t-42.5 -56h320l-17 -81h-426q20 96 66.5 151t189.5 168q40 32 60 49.5t47.5 46.5t39.5 57t12 58q0 50 -35.5 84.5t-85.5 34.5
q-61 0 -94.5 -43t-46.5 -105z" />
    <glyph glyph-name="three" unicode="3" 
d="M57 187l86 11q19 -140 131 -140q68 0 114 48t46 106q0 53 -35.5 87.5t-95.5 34.5q-3 0 -6.5 -0.5t-9.5 -1t-12 -0.5l15 74q14 -2 24 -2q82 0 119.5 39.5t37.5 87.5q0 50 -33 84t-82 34q-45 0 -83.5 -33.5t-50.5 -99.5l-87 18q13 51 39 88.5t52 55t58.5 28t48 12t29.5 1.5
q90 0 143.5 -54.5t53.5 -130.5q0 -112 -118 -168q83 -50 83 -141q0 -98 -72.5 -167.5t-171.5 -69.5q-87 0 -151.5 50t-71.5 149z" />
    <glyph glyph-name="four" unicode="4" 
d="M301 0l38 182h-292l19 88l401 446h72l-95 -455h101l-17 -79h-100l-39 -182h-88zM152 261h204l62 296l-2 2z" />
    <glyph glyph-name="five" unicode="5" 
d="M72 204l90 9q-5 -76 33.5 -115.5t85.5 -39.5q72 0 125 67.5t53 149.5q0 56 -34 94.5t-94 38.5q-80 0 -137 -75l-77 7l107 366h350l-17 -81h-272l-54 -180l2 -2q56 44 126 44q32 0 63.5 -10.5t60.5 -32.5t46.5 -63.5t17.5 -96.5q0 -125 -77 -210.5t-195 -85.5
q-100 0 -153.5 65t-49.5 151z" />
    <glyph glyph-name="six" unicode="6" 
d="M570 542l-82 -8q-15 111 -97 111q-42 0 -78.5 -29.5t-59 -73t-34 -74t-16.5 -51.5l2 -2q67 61 145 61q79 0 133.5 -53.5t54.5 -151.5q0 -113 -70 -198t-175 -85q-37 0 -72 13.5t-66.5 41t-50.5 78.5t-19 118q0 48 9 106t32.5 125.5t57 122t89.5 90.5t124 36q83 0 125 -51
t48 -126zM172 201q0 -55 35.5 -99t87.5 -44q60 0 109.5 64t49.5 140q0 61 -34.5 102.5t-87.5 41.5q-61 0 -110.5 -58.5t-49.5 -146.5z" />
    <glyph glyph-name="seven" unicode="7" 
d="M480 625h-357l17 81h457l-17 -81q-126 -111 -216 -287.5t-125 -337.5h-92q22 133 112.5 316t220.5 309z" />
    <glyph glyph-name="eight" unicode="8" 
d="M227 393q-79 44 -79 131q0 31 13 63.5t38 62.5t68 49.5t97 19.5q56 0 97.5 -17.5t62.5 -45.5t31 -56t10 -55q0 -79 -58 -128q-23 -19 -62 -34q16 -10 26.5 -18t26.5 -26t24.5 -44.5t8.5 -60.5q0 -98 -69 -172t-181 -74q-93 0 -148.5 56t-55.5 138q0 15 1.5 30.5t10 45
t23 53t44.5 47t71 35.5zM165 175q0 -51 34.5 -84t90.5 -33q68 0 110.5 58t42.5 123q0 52 -34 83t-85 31q-71 0 -115 -52.5t-44 -125.5zM234 520q0 -47 30.5 -74.5t80.5 -27.5q66 0 101.5 39.5t35.5 87.5q0 46 -30.5 75t-80.5 29q-65 0 -101 -40.5t-36 -88.5z" />
    <glyph glyph-name="nine" unicode="9" 
d="M69 165l82 8q15 -111 97 -111q42 0 78.5 29.5t59 73t34 74t16.5 51.5l-2 2q-67 -61 -145 -61q-79 0 -133.5 53.5t-54.5 151.5q0 113 70 198t175 85q37 0 72 -13.5t66.5 -41t50.5 -78.5t19 -118q0 -48 -9 -106t-32.5 -125.5t-57 -122t-89.5 -90.5t-124 -36q-83 0 -125 51
t-48 126zM467 506q0 55 -35.5 99t-87.5 44q-60 0 -109.5 -64t-49.5 -140q0 -61 34.5 -102.5t87.5 -41.5q61 0 110.5 58.5t49.5 146.5z" />
    <glyph glyph-name="colon" unicode=":" horiz-adv-x="278" 
d="M145 418l21 100h100l-21 -100h-100zM58 0l21 100h100l-21 -100h-100z" />
    <glyph glyph-name="semicolon" unicode=";" horiz-adv-x="278" 
d="M59 0l21 100h101l-18 -87q-29 -145 -134 -158l8 39q58 14 77 106h-55zM145 418l21 100h100l-21 -100h-100z" />
    <glyph glyph-name="less" unicode="&#x3c;" horiz-adv-x="584" 
d="M79 313v82l474 200v-87l-376 -154l376 -156v-87z" />
    <glyph glyph-name="equal" unicode="=" horiz-adv-x="584" 
d="M572 421h-474v82h474v-82zM572 203h-474v82h474v-82z" />
    <glyph glyph-name="greater" unicode="&#x3e;" horiz-adv-x="584" 
d="M582 313l-474 -202v87l375 156l-375 154v87l474 -200v-82z" />
    <glyph glyph-name="question" unicode="?" 
d="M218 505l-89 15q21 101 76 151q62 57 152 57q91 0 148.5 -50.5t57.5 -124.5q0 -32 -10 -59.5t-36.5 -56.5t-46.5 -46.5t-64 -53.5q-65 -52 -84 -81t-27 -77h-83q4 40 15.5 71t35 58.5t42 45t56.5 47.5q34 28 54 46.5t40 50.5t20 61q0 40 -33 68.5t-83 28.5
q-121 0 -141 -151zM168 0l21 100h100l-21 -100h-100z" />
    <glyph glyph-name="at" unicode="@" horiz-adv-x="1015" 
d="M643 439l17 76h87l-70 -328q-1 -4 -3.5 -16t-4.5 -18q-7 -35 -7 -42q0 -14 11 -23t24 -9q20 0 51 19t62 52t53 87t22 113q0 135 -101.5 221t-247.5 86q-184 0 -299 -126q-109 -118 -109 -294q0 -98 34 -172t93.5 -117.5t133.5 -64.5t162 -21q74 0 135.5 15t102 40
t64.5 47t40 45h88q-7 -15 -19.5 -34t-48 -54t-80.5 -62t-120 -48t-163 -21q-125 0 -222 34.5t-155 96t-87.5 139t-29.5 169.5q0 62 14 126t50 132.5t89 121t139 86.5t193 34q80 0 148.5 -21.5t117 -58.5t83 -85.5t51 -103.5t16.5 -113q0 -137 -92 -243t-201 -106
q-31 0 -51 7.5t-28.5 22.5t-11 25t-4.5 27q-70 -82 -150 -82q-77 0 -127 64.5t-50 153.5q0 116 76.5 214.5t176.5 98.5q93 0 148 -90zM332 212q0 -67 32 -104t75 -37q65 0 120.5 74.5t55.5 169.5q0 72 -34 107t-80 35q-51 0 -91.5 -44t-59 -98.5t-18.5 -102.5z" />
    <glyph glyph-name="A" unicode="A" horiz-adv-x="667" 
d="M-20 0l406 716h113l118 -716h-93l-35 206h-289l-115 -206h-105zM358 492l-117 -212h236l-27 179q-18 116 -19 179h-2q-25 -64 -71 -146z" />
    <glyph glyph-name="B" unicode="B" horiz-adv-x="667" 
d="M44 0l149 716h222q39 0 62.5 -1.5t59.5 -11.5t61 -30q57 -45 57 -127q0 -127 -132 -172v-2q116 -34 116 -145q0 -89 -70 -158t-179 -69h-346zM208 329l-52 -248h163q40 0 59 1t45 7t50 19q31 17 49.5 50t18.5 68q0 29 -11 49.5t-24.5 31t-37.5 15.5t-39 6t-39 1h-182z
M272 635l-47 -225h145q64 0 103 10q40 10 66 44t26 76q0 27 -10 46t-22.5 28.5t-35 14.5t-36.5 5.5t-37 0.5h-152z" />
    <glyph glyph-name="C" unicode="C" horiz-adv-x="722" 
d="M604 252l95 -13q-43 -117 -125.5 -184t-198.5 -67q-124 0 -203.5 76t-79.5 232q0 181 105 306.5t269 125.5q30 0 60 -5t65.5 -20.5t63.5 -39.5t49.5 -65.5t27.5 -94.5l-90 -8q-27 154 -172 154q-87 0 -153 -52.5t-98 -132.5t-32 -170q0 -54 13.5 -95.5t33.5 -66t47 -39.5
t51.5 -20.5t49.5 -5.5q41 0 76.5 14t59 34.5t42.5 47.5t28.5 48t15.5 41z" />
    <glyph glyph-name="D" unicode="D" horiz-adv-x="722" 
d="M45 0l149 716h216q41 0 65 -1.5t62 -12.5t68 -32q107 -76 107 -246q0 -131 -56.5 -227t-128.5 -142q-84 -55 -225 -55h-257zM273 635l-116 -554h113q147 0 209 46q54 41 95 117.5t41 183.5q0 59 -15.5 100.5t-35 61.5t-54 31t-55 12.5t-55.5 1.5h-127z" />
    <glyph glyph-name="E" unicode="E" horiz-adv-x="667" 
d="M45 0l150 716h516l-17 -81h-421l-46 -224h409l-17 -81h-409l-52 -249h450l-17 -81h-546z" />
    <glyph glyph-name="F" unicode="F" horiz-adv-x="611" 
d="M44 0l149 716h465l-17 -81h-369l-48 -229h377l-17 -81h-377l-68 -325h-95z" />
    <glyph glyph-name="G" unicode="G" horiz-adv-x="778" 
d="M409 282l17 81h314l-61 -291q-133 -84 -284 -84q-74 0 -130.5 22t-87.5 54t-50 75.5t-24.5 78t-5.5 69.5q0 79 24.5 155.5t71.5 141.5t124 104.5t173 39.5q80 0 148 -33t101 -100q18 -39 27 -89l-94 -10q-16 79 -65.5 116t-119.5 37q-130 0 -211.5 -103t-81.5 -261
q0 -107 52 -162q54 -56 148 -56t201 61l32 154h-218z" />
    <glyph glyph-name="H" unicode="H" horiz-adv-x="722" 
d="M42 0l150 716h95l-62 -298h371l62 298h96l-149 -716h-96l70 337h-371l-70 -337h-96z" />
    <glyph glyph-name="I" unicode="I" horiz-adv-x="278" 
d="M56 0l150 716h95l-149 -716h-96z" />
    <glyph glyph-name="J" unicode="J" horiz-adv-x="500" 
d="M41 208l88 7q-8 -45 -8 -61q0 -28 11.5 -47t28.5 -27t29.5 -10.5t23.5 -2.5q26 0 46 9.5t31.5 20.5t20.5 34t12.5 36t9.5 41l106 508h96l-109 -523q-9 -42 -22.5 -75t-37 -64.5t-63 -48.5t-91.5 -17q-84 0 -135 41q-45 37 -45 115q0 38 8 64z" />
    <glyph glyph-name="K" unicode="K" horiz-adv-x="667" 
d="M44 0l150 716h96l-72 -343l2 -2l387 345h134l-332 -291l243 -425h-106l-207 363l-150 -130l-49 -233h-96z" />
    <glyph glyph-name="L" unicode="L" 
d="M42 0l149 716h96l-132 -635h371l-17 -81h-467z" />
    <glyph glyph-name="M" unicode="M" horiz-adv-x="833" 
d="M44 0l150 716h117l72 -464q15 -91 18 -175h2q15 37 37 80q39 76 61 115l252 444h119l-149 -716h-94l74 348q28 129 69 252q0 1 1 4.5t2 6.5q3 7 3 8q-29 -65 -77 -151l-267 -468h-92l-72 459q-12 84 -12 147h-2q0 -11 -3 -23q-15 -104 -20 -127l-96 -456h-93z" />
    <glyph glyph-name="N" unicode="N" horiz-adv-x="722" 
d="M50 0l149 716h93l121 -269q90 -200 129 -338h2q12 91 33 186l88 421h93l-150 -716h-94l-178 413q-52 121 -73 193h-2q-6 -67 -27 -171l-91 -435h-93z" />
    <glyph glyph-name="O" unicode="O" horiz-adv-x="778" 
d="M89 300q0 193 111 310.5t269 117.5q139 0 220.5 -89.5t81.5 -231.5q0 -174 -110.5 -296.5t-270.5 -122.5q-137 0 -219 90.5t-82 221.5zM184 295q0 -105 64 -166.5t149 -61.5q119 0 199 106t80 242q0 109 -61 171.5t-146 62.5q-50 0 -99 -22t-91.5 -64t-68.5 -112
t-26 -156z" />
    <glyph glyph-name="P" unicode="P" horiz-adv-x="667" 
d="M43 0l150 716h299q85 0 124 -22q36 -20 59 -61t23 -93q0 -56 -30 -116.5t-88 -93.5q-71 -40 -201 -40h-179l-61 -290h-96zM272 637l-55 -266h157q102 0 149 28q34 20 57 57t23 82q0 29 -9.5 48.5t-21 29.5t-35.5 15t-38 5.5t-43 0.5h-184z" />
    <glyph glyph-name="Q" unicode="Q" horiz-adv-x="778" 
d="M701 -25l-42 -57q-64 41 -110 95l-7 8q-69 -33 -139 -33q-28 0 -59 4.5t-79 24t-84.5 52t-63.5 96t-27 148.5q0 79 26.5 153t74.5 132.5t120.5 94t158.5 35.5q139 0 220.5 -89.5t81.5 -231.5q0 -108 -44.5 -199t-124.5 -151q32 -38 98 -82zM536 128l9 -9
q63 49 97.5 130.5t34.5 163.5q0 114 -62.5 175t-142.5 61q-120 0 -203.5 -99.5t-83.5 -244.5q0 -66 22.5 -116t56.5 -74.5t65 -36t57 -11.5q51 0 96 16q-44 40 -91 65l34 60q54 -23 111 -80z" />
    <glyph glyph-name="R" unicode="R" horiz-adv-x="722" 
d="M47 0l150 716h300q32 0 50 -1t50.5 -5.5t52 -15.5t40.5 -29.5t31 -50t10 -73.5q0 -186 -242 -219q79 -59 131 -187l55 -135h-107l-52 133q-40 105 -86 154q-28 31 -110 31h-111l-66 -318h-96zM276 637l-50 -242h132q60 0 86.5 0.5t56 5t50.5 14.5q42 19 65 52.5t23 75.5
q0 27 -9 46t-21 28t-32.5 14t-33 5.5t-33.5 0.5h-234z" />
    <glyph glyph-name="S" unicode="S" horiz-adv-x="667" 
d="M71 232l93 8q-1 -39 4 -60q28 -113 182 -113q83 0 129.5 36.5t46.5 87.5q0 44 -34.5 70.5t-122.5 65.5q-32 14 -45.5 20t-41.5 20.5t-40.5 24t-32 26.5t-28 33t-15.5 38.5t-7 47.5q0 88 69.5 139.5t181.5 51.5q72 0 126 -20t82.5 -52.5t41.5 -68.5t11 -74l-93 -7
q0 20 -3 38q-12 56 -59.5 80.5t-109.5 24.5q-21 0 -44 -4t-49.5 -14.5t-43.5 -33.5t-17 -55q0 -43 31 -67t120 -63q52 -23 77 -34.5t58.5 -32.5t48 -39t25.5 -46t11 -62q0 -89 -76 -149.5t-200 -60.5q-79 0 -149 25.5t-100 84.5q-27 52 -27 134z" />
    <glyph glyph-name="T" unicode="T" horiz-adv-x="611" 
d="M227 0l133 635h-235l17 81h563l-17 -81h-233l-132 -635h-96z" />
    <glyph glyph-name="U" unicode="U" horiz-adv-x="722" 
d="M200 716h95l-90 -438q-12 -52 -12 -81q0 -60 47 -94t112 -34q82 0 141 53q52 47 85 202l82 392h96l-88 -419q-5 -26 -9.5 -43.5t-16.5 -53t-26 -60t-38.5 -56t-54 -50.5t-72.5 -32.5t-94 -13.5q-114 0 -186.5 54t-72.5 155q0 37 20 129z" />
    <glyph glyph-name="V" unicode="V" horiz-adv-x="667" 
d="M262 0l-138 716h92l83 -427q24 -120 29 -188h2q20 47 73 146l255 469h99l-393 -716h-102z" />
    <glyph glyph-name="W" unicode="W" horiz-adv-x="944" 
d="M167 0l-44 716h97l17 -354q7 -129 5 -228l2 -2q6 17 24 52l21 43l39 77l218 412h99l23 -419q5 -71 5 -172h2q12 34 42.5 101.5t40.5 85.5l204 404h97l-363 -716h-103l-24 434q-3 45 -5 136h-2q-16 -41 -48 -105l-248 -465h-99z" />
    <glyph glyph-name="X" unicode="X" horiz-adv-x="667" 
d="M-32 0l342 362l-202 354h105l92 -162l11 -18q38 -68 59 -114q38 50 112 128l157 166h125l-346 -370l196 -346h-104l-116 209q-11 18 -40 79q-33 -44 -64 -75l-200 -213h-127z" />
    <glyph glyph-name="Y" unicode="Y" horiz-adv-x="667" 
d="M280 0l57 277l-220 439h103l105 -209q37 -72 68 -146q34 64 98 144l168 211h114l-341 -447l-57 -269h-95z" />
    <glyph glyph-name="Z" unicode="Z" horiz-adv-x="611" 
d="M23 0l9 72l358 428q8 9 24.5 29t19.5 24q64 76 74 86l-2 2q-35 -5 -61 -5l-80 -1h-241l17 81h494l-8 -75l-384 -457q-3 -2 -17 -20q-3 -3 -6.5 -7t-6 -6.5l-3.5 -3.5q-44 -53 -58 -66l2 -2q20 3 27 3l53 -1h336l-17 -81h-530z" />
    <glyph glyph-name="bracketleft" unicode="[" horiz-adv-x="278" 
d="M5 -196l188 912h197l-14 -68h-107l-162 -776h108l-15 -68h-195z" />
    <glyph glyph-name="backslash" unicode="\" horiz-adv-x="278" 
d="M207 -24l-207 740h71l207 -740h-71z" />
    <glyph glyph-name="bracketright" unicode="]" horiz-adv-x="278" 
d="M326 716l-188 -912h-197l14 68h107l162 776h-108l15 68h195z" />
    <glyph glyph-name="asciicircum" unicode="^" horiz-adv-x="469" 
d="M160 325h-90l173 391h71l173 -391h-89l-120 292z" />
    <glyph glyph-name="underscore" unicode="_" 
d="M-6 -125v50h512v-50h-512z" />
    <glyph glyph-name="grave" unicode="`" horiz-adv-x="333" 
d="M241 581l-95 135h107l57 -135h-69z" />
    <glyph glyph-name="a" unicode="a" 
d="M186 363l-90 8q13 36 33 65q66 94 204 94q84 0 140 -36t56 -98q0 -37 -13 -97l-29 -128q-13 -61 -13 -101q0 -21 8 -63q2 -2 2 -7h-89q-7 22 -11 65q-86 -77 -178 -77q-68 0 -114 40t-46 110q0 160 235 168q111 4 149 19q11 36 11 60t-13.5 40t-34.5 22.5t-35.5 8.5
t-28.5 2q-110 0 -143 -95zM417 263q-33 -13 -136 -22q-29 -3 -48.5 -6.5t-45 -13.5t-39.5 -30t-14 -49q0 -34 23.5 -60t74.5 -26q41 0 78.5 20t62.5 56q28 41 44 131z" />
    <glyph glyph-name="b" unicode="b" 
d="M35 0l150 716h88l-53 -254l2 -2q72 70 146 70q15 0 31.5 -3t42.5 -15.5t46 -33.5t34.5 -63t14.5 -97q0 -141 -78 -235.5t-174 -94.5q-74 0 -119 53q-19 22 -32 57h-2l-19 -98h-78zM166 213q0 -49 12.5 -82.5t32.5 -47.5t35 -18.5t31 -4.5q46 0 81.5 30t54 74t27.5 84.5
t9 72.5q0 19 -4.5 40t-15 44t-33.5 38t-55 15q-85 0 -137 -104q-38 -79 -38 -141z" />
    <glyph glyph-name="c" unicode="c" horiz-adv-x="500" 
d="M391 189l89 -9q-33 -97 -94.5 -144.5t-139.5 -47.5q-82 0 -136 53t-54 154q0 42 8.5 85.5t28.5 89t50.5 80.5t78.5 57.5t107 22.5q31 0 61 -8.5t58 -27t45.5 -53.5t17.5 -83l-88 -5q0 34 -12 57t-30.5 32.5t-32.5 12.5t-27 3q-54 0 -92 -33.5t-54 -83.5t-22.5 -87
t-6.5 -65q0 -43 12 -72t30.5 -41t32 -16t26.5 -4q54 0 90.5 40.5t53.5 92.5z" />
    <glyph glyph-name="d" unicode="d" 
d="M455 437l57 279h88l-149 -716h-82l16 73l-2 2q-73 -87 -157 -87q-30 0 -58 10.5t-54.5 33t-43 66.5t-16.5 103q0 135 76 232t178 97q97 0 145 -93h2zM142 217q0 -157 110 -157q71 0 122.5 81t51.5 185q0 66 -34 99t-79 33q-44 0 -79 -29t-54 -70.5t-28.5 -79t-9.5 -62.5z
" />
    <glyph glyph-name="e" unicode="e" 
d="M414 176l86 -9q-19 -64 -85.5 -121.5t-158.5 -57.5q-88 0 -145.5 58t-57.5 162q0 52 16.5 106.5t48.5 103.5t87 80.5t123 31.5q57 0 98.5 -20.5t63.5 -54t32 -68t10 -71.5q0 -32 -7 -79h-382q-2 -20 -2 -27q0 -72 33 -111t82 -39q39 0 85 26.5t73 89.5zM157 305h291
q1 19 0 40q-4 59 -38 88t-80 29q-69 0 -111.5 -47.5t-61.5 -109.5z" />
    <glyph glyph-name="f" unicode="f" horiz-adv-x="278" 
d="M46 0l94 450h-79l14 68h79l15 74q7 35 13 52.5t20.5 40.5t41 33t66.5 10q28 0 98 -14l-16 -77q-56 12 -75 12q-32 0 -43.5 -17t-19.5 -58l-12 -56h99l-14 -68h-99l-94 -450h-88z" />
    <glyph glyph-name="g" unicode="g" 
d="M31 -47l89 -8q-1 -16 1 -26t9.5 -24.5t29 -22t56.5 -7.5q26 0 46.5 4.5t34.5 10.5t26 20t18 23t13 31.5t10 34t9 39.5l9 40l-2 2q-66 -70 -144 -70q-80 0 -132.5 58.5t-52.5 163.5q0 119 77.5 213.5t182.5 94.5q103 0 156 -97h2l15 85h81l-105 -501q-7 -32 -12.5 -52.5
t-23 -56.5t-40 -58t-64.5 -39.5t-95 -17.5q-27 0 -52 3.5t-62 15t-60 41t-23 74.5q0 15 3 26zM141 229q0 -68 23 -105q32 -52 89 -52t100.5 42.5t63 98t19.5 107.5q0 58 -34 98t-89 40q-42 0 -76.5 -25.5t-54.5 -63.5t-30.5 -75t-10.5 -65z" />
    <glyph glyph-name="h" unicode="h" 
d="M35 0l150 716h88l-57 -273l2 -2q87 89 178 89q66 0 100.5 -35.5t34.5 -87.5q0 -23 -15 -101l-64 -306h-89l66 314q14 73 14 86q0 26 -18 42t-50 16q-89 0 -147 -74q-33 -45 -58 -162l-46 -222h-89z" />
    <glyph glyph-name="i" unicode="i" horiz-adv-x="222" 
d="M29 0l108 518h89l-109 -518h-88zM157 616l21 100h89l-21 -100h-89z" />
    <glyph glyph-name="j" unicode="j" horiz-adv-x="222" 
d="M-121 -195l15 75q35 -8 54 -8q34 0 49 25t31 98l109 523h89l-113 -539q-8 -35 -12 -53t-16.5 -48t-26.5 -45.5t-38.5 -28t-56.5 -12.5q-35 0 -84 13zM157 616l21 100h89l-21 -100h-89z" />
    <glyph glyph-name="k" unicode="k" horiz-adv-x="500" 
d="M34 0l150 716h88l-93 -442l2 -2l256 246h117l-222 -193l134 -325h-97l-103 266l-107 -93l-37 -173h-88z" />
    <glyph glyph-name="l" unicode="l" horiz-adv-x="222" 
d="M26 0l150 716h88l-149 -716h-89z" />
    <glyph glyph-name="m" unicode="m" horiz-adv-x="833" 
d="M32 0l109 518h88l-18 -83l2 -2q24 28 43 46t53.5 34.5t73.5 16.5q102 0 124 -97q78 97 175 97q22 0 42 -4.5t41 -16t33.5 -36t12.5 -60.5q0 -28 -11 -79l-69 -334h-88l71 343q9 45 9 60q0 55 -61 55q-73 0 -127 -63q-36 -41 -57 -143l-53 -252h-88l73 350q7 35 7 51
q0 24 -15 40.5t-42 16.5q-38 0 -73 -20.5t-58 -49.5q-35 -43 -57 -143l-51 -245h-89z" />
    <glyph glyph-name="n" unicode="n" 
d="M33 0l109 518h80l-19 -88l2 -2q96 102 188 102q18 0 37.5 -4.5t43.5 -16.5t39 -38.5t15 -65.5q0 -26 -13 -91l-65 -314h-89l69 329q10 46 10 70q0 32 -21 45.5t-48 13.5q-79 0 -135 -64q-41 -44 -64 -153l-50 -241h-89z" />
    <glyph glyph-name="o" unicode="o" 
d="M51 197q0 139 76 236t206 97q94 0 151.5 -58.5t57.5 -158.5q0 -142 -81 -233.5t-198 -91.5q-90 0 -151 54.5t-61 154.5zM139 206q0 -39 10.5 -68.5t25 -44.5t33.5 -24t31.5 -11t24.5 -2q57 0 102 42t66.5 100t21.5 116q0 63 -32 105.5t-92 42.5t-105.5 -42t-65.5 -99
t-20 -115z" />
    <glyph glyph-name="p" unicode="p" 
d="M-8 -199l149 717h82l-15 -70l2 -2q37 41 73 62.5t82 21.5q75 0 123.5 -54.5t48.5 -154.5q0 -138 -77 -235.5t-177 -97.5q-95 0 -143 95h-2l-58 -282h-88zM166 212q0 -32 1.5 -48.5t10.5 -38.5t27 -38q29 -27 74 -27q44 0 79 29.5t53.5 73.5t28 85t9.5 73q0 57 -28 97
t-82 40q-83 0 -133 -100q-40 -77 -40 -146z" />
    <glyph glyph-name="q" unicode="q" 
d="M457 423l19 95h77l-150 -717h-89l54 256l-2 2q-73 -71 -143 -71q-29 0 -57 10.5t-55 33.5t-43.5 66.5t-16.5 101.5q0 139 75.5 234.5t181.5 95.5q102 0 147 -107h2zM139 211q0 -94 50 -131q28 -20 60 -20q50 0 92 43.5t62.5 102.5t20.5 116q0 59 -31.5 97.5t-81.5 38.5
q-44 0 -79 -28.5t-54 -70t-29 -80.5t-10 -68z" />
    <glyph glyph-name="r" unicode="r" horiz-adv-x="333" 
d="M33 0l109 518h78l-22 -103l2 -2q72 117 154 117q28 0 66 -19l-37 -82q-21 17 -50 17q-61 0 -113 -74q-35 -51 -59 -164l-44 -208h-84z" />
    <glyph glyph-name="s" unicode="s" horiz-adv-x="500" 
d="M38 177l89 6q0 -127 128 -127q50 0 83.5 21.5t33.5 57.5q0 31 -25.5 51t-81.5 44q-36 16 -51.5 23t-40 22t-35 28t-19 33t-8.5 45q0 56 45.5 102.5t139.5 46.5q33 0 64 -7t63.5 -23.5t53 -51t21.5 -82.5l-88 -5q-1 34 -17 57t-39.5 31t-37.5 10.5t-26 2.5
q-45 0 -71 -20.5t-26 -45.5q0 -20 13 -34.5t29 -23t56 -25.5q47 -20 68.5 -31t50 -31.5t40 -45.5t11.5 -59q0 -63 -55 -110.5t-156 -47.5q-21 0 -42 2.5t-54.5 13.5t-58 29.5t-42 56t-15.5 87.5z" />
    <glyph glyph-name="t" unicode="t" horiz-adv-x="278" 
d="M240 72l-15 -72q-30 -9 -62 -9q-39 0 -73 18t-34 61q0 17 13 79l63 301h-70l14 68h70l27 128l101 61l-40 -189h87l-14 -68h-87l-60 -286q-11 -51 -11 -66q0 -32 38 -32q27 0 53 6z" />
    <glyph glyph-name="u" unicode="u" 
d="M81 219l62 299h88l-70 -331q-9 -43 -9 -64q0 -28 17 -43.5t29.5 -17.5t25.5 -2q62 0 118 52q25 24 42 56.5t24 57.5t16 68l47 224h88l-108 -518h-82l20 92l-2 2q-89 -106 -189 -106q-55 0 -94.5 32.5t-39.5 86.5q0 27 17 112z" />
    <glyph glyph-name="v" unicode="v" horiz-adv-x="500" 
d="M164 0l-85 518h86l44 -285q5 -32 17 -135v-18h2l8 19q10 18 31 60q16 32 25 48l173 311h94l-297 -518h-98z" />
    <glyph glyph-name="w" unicode="w" horiz-adv-x="722" 
d="M133 0l-54 518h85l23 -233q1 -3 3 -44q3 -47 7 -85q1 -15 1 -60h2q20 71 57 152l124 270h96l17 -259q4 -88 4 -158h2q16 51 56 136l134 281h88l-253 -518h-92l-20 304q-2 28 -2 111h-2q-20 -56 -46 -113l-137 -302h-93z" />
    <glyph glyph-name="x" unicode="x" horiz-adv-x="500" 
d="M-2 0l226 263l-130 255h98l44 -92q14 -30 44 -99l150 191h108l-218 -262l130 -256h-97l-52 105q-16 34 -38 84l-154 -189h-111z" />
    <glyph glyph-name="y" unicode="y" horiz-adv-x="500" 
d="M0 -200l5 83q24 -8 53 -8q27 0 46.5 15t44.5 58l28 50l-86 520h87l39 -262q12 -79 19 -155h2l231 417h92l-330 -587q-18 -33 -30.5 -51.5t-34 -42.5t-48 -35.5t-58.5 -11.5t-60 10z" />
    <glyph glyph-name="z" unicode="z" horiz-adv-x="500" 
d="M20 0l14 68l279 314q36 40 66 68l-2 2l-29 -3q-33 -3 -59 -3h-193l15 72h401l-11 -55l-282 -316q-24 -27 -71 -74l38 3q23 2 63 2h204l-16 -78h-417z" />
    <glyph glyph-name="braceleft" unicode="{" horiz-adv-x="334" 
d="M335 728h27v-76h-15q-50 0 -67 -18.5t-17 -82.5q0 -49 -0.5 -71t-2 -56t-5.5 -49t-11 -36.5t-18 -32.5t-27 -23.5t-38 -23.5q60 -26 81 -76.5t21 -144.5q0 -122 11.5 -147t72.5 -25h15v-76h-27q-26 0 -42 1.5t-40 12t-39 30.5q-23 30 -28 68t-5 128q0 38 -1 58t-6 49
t-15 43.5t-30 26t-49 12.5v80q24 0 42 7t28.5 22t17 28.5t9 40.5t3.5 42.5t1 48.5q1 64 2 90t8.5 55.5t22.5 50.5q15 20 39 30.5t40 12t42 1.5z" />
    <glyph glyph-name="bar" unicode="|" horiz-adv-x="260" 
d="M135 750h76v-1000h-76v1000z" />
    <glyph glyph-name="braceright" unicode="}" horiz-adv-x="334" 
d="M83 -210h-27v76h15q50 0 67 18.5t17 82.5q0 49 0.5 71t2 56t5.5 49t11 36.5t18 32.5t27 23.5t38 23.5q-60 26 -81 76.5t-21 144.5q0 122 -11.5 147t-72.5 25h-15v76h27q26 0 42 -1.5t40 -12t39 -30.5q23 -30 28 -68t5 -128q0 -38 1 -58t6 -49t15 -43.5t30 -26t49 -12.5
v-80q-24 0 -42 -7t-28.5 -22t-17 -28.5t-9 -40.5t-3.5 -42.5t-1 -48.5q-1 -64 -2 -90t-8.5 -55.5t-22.5 -50.5q-15 -20 -39 -30.5t-40 -12t-42 -1.5z" />
    <glyph glyph-name="asciitilde" unicode="~" horiz-adv-x="584" 
d="M87 272v100q51 59 135 59q52 0 134 -34q14 -7 39 -17q36 -15 65 -15q28 0 59 16t44 28t23 23v-103q-60 -56 -135 -56q-51 0 -119 30q-22 11 -30 13q-44 22 -88 22q-27 0 -53 -11.5t-39.5 -23t-34.5 -31.5z" />
    <glyph glyph-name="exclamdown" unicode="&#xa1;" horiz-adv-x="333" 
d="M278 518l-21 -100h-100l21 100h100zM222 337l-54 -388l-31 -147h-107l33 159l104 376h55z" />
    <glyph glyph-name="cent" unicode="&#xa2;" 
d="M381 528l81 198l52 -22l-78 -190q96 -42 96 -156l-87 -5q-2 59 -40 86l-157 -380q12 -3 20 -3q54 0 90 40.5t54 92.5l88 -9q-33 -98 -94.5 -145t-138.5 -47q-25 0 -47 5l-79 -192l-53 23l79 189q-90 52 -90 182q0 42 8.5 85.5t29 89t50.5 80.5t78 57.5t107 22.5
q17 0 31 -2zM198 88l153 369q-45 3 -80 -18.5t-54 -54t-31 -73t-15.5 -69.5t-3.5 -51q0 -69 31 -103z" />
    <glyph glyph-name="sterling" unicode="&#xa3;" 
d="M43 -12l-10 86q152 99 152 222q0 8 -2 22h-108l15 74h85q-9 57 -9 111q0 99 69.5 162t166.5 63q31 0 61 -8t62 -27.5t55 -59t29 -95.5l-80 -8q-4 35 -17.5 61t-28 38.5t-34 19.5t-29 8t-19.5 1q-22 0 -45 -8.5t-46.5 -26.5t-38.5 -53.5t-15 -82.5q0 -38 10 -95h141
l-15 -74h-123q2 -81 -26.5 -130t-76.5 -84l3 -1q5 0 17 1.5t18 1.5q65 0 109 -15q54 -18 83 -18q55 0 107 30l27 -79q-75 -36 -130 -36q-27 0 -46.5 5.5t-64.5 24.5q-45 18 -93 18q-44 0 -77 -11t-76 -37z" />
    <glyph glyph-name="currency" unicode="&#xa4;" 
d="M150 469l-68 67l56 58l68 -68q52 35 116 35t116 -35l68 68l56 -58l-68 -67q34 -52 34 -115q0 -62 -34 -115l68 -66l-56 -58l-68 68q-52 -35 -116 -35t-116 35l-68 -68l-56 58l68 66q-35 55 -35 115q0 61 35 115zM195 354q0 -52 37 -89t89 -37q53 0 90 37t37 89t-37 89.5
t-90 37.5q-52 0 -89 -37t-37 -90z" />
    <glyph glyph-name="yen" unicode="&#xa5;" 
d="M205 0l33 160h-200l14 67h200l17 83h-201l13 67h164l-129 339h89l56 -154q3 -5 10 -25q5 -17 25 -71.5t29 -88.5h2q12 32 32 61q12 17 30 44l170 234h110l-256 -339h155l-14 -67h-196l-17 -83h198l-14 -67h-198l-34 -160h-88z" />
    <glyph glyph-name="brokenbar" unicode="&#xa6;" horiz-adv-x="260" 
d="M211 675v-350h-76v350h76zM211 -175h-76v350h76v-350z" />
    <glyph glyph-name="section" unicode="&#xa7;" 
d="M32 -43l82 20q9 -40 27.5 -66.5t41 -36.5t37 -13t29.5 -3q47 0 78.5 28t31.5 65q0 32 -21.5 55t-113.5 97l-33 27q-32 26 -46 39t-33.5 35t-27 44t-7.5 49q0 35 12.5 64t36.5 49.5t43 32.5t47 26q-38 46 -38 99q0 67 49.5 113.5t139.5 46.5q47 0 82 -13t53.5 -29.5
t31.5 -43.5t16 -41.5t7 -37.5l-88 -11q0 35 -13.5 58.5t-34.5 32t-33.5 11t-25.5 2.5q-44 0 -72.5 -25t-28.5 -61q0 -38 30 -71t103 -92q80 -64 108.5 -100t28.5 -80q0 -102 -136 -167q49 -56 49 -109q0 -64 -53.5 -112.5t-141.5 -48.5q-79 0 -139 41t-78 126zM351 106
q98 46 98 110q0 22 -12 39.5t-46 45.5q-106 88 -140 125q-94 -54 -94 -119q0 -28 19 -52t66 -61q30 -23 38 -31q4 -3 29 -23.5t29 -23.5q1 0 3 -2t5.5 -4.5t4.5 -3.5z" />
    <glyph glyph-name="dieresis" unicode="&#xa8;" horiz-adv-x="333" 
d="M296 599l21 100h92l-21 -100h-92zM116 599l21 100h92l-21 -100h-92z" />
    <glyph glyph-name="copyright" unicode="&#xa9;" horiz-adv-x="737" 
d="M531 300l60 -18q-16 -65 -65.5 -99.5t-111.5 -34.5q-86 0 -140 56.5t-54 154.5q0 96 52.5 151.5t144.5 55.5q60 0 105 -28.5t62 -86.5l-58 -14q-29 75 -111 75q-65 0 -96.5 -46t-31.5 -109q0 -74 34.5 -112.5t88.5 -38.5q13 0 27.5 3t34 12t36 29.5t23.5 49.5zM413 728
q152 0 260 -107.5t108 -260.5t-107.5 -261t-260.5 -108t-261 108t-108 261t108.5 260.5t260.5 107.5zM412 667q-128 0 -217.5 -89.5t-89.5 -217.5t90 -218t217 -90q128 0 218 90t90 218q0 127 -90 217t-218 90z" />
    <glyph glyph-name="ordfeminine" unicode="&#xaa;" horiz-adv-x="370" 
d="M182 610l-69 12q48 106 159 106q59 0 97.5 -25.5t38.5 -71.5q0 -43 -23 -119l-8 -31q-10 -37 -10 -64q0 -29 9 -47h-67q-2 7 -6 32q-18 -16 -49 -29.5t-65 -13.5q-57 0 -83 32.5t-26 67.5q0 30 13 52.5t29.5 34t43 18.5t42 9t38.5 3q48 2 85 10q7 20 7 32q0 25 -20 38
t-47 13q-64 0 -89 -59zM318 531q-28 -8 -94 -14q-74 -7 -74 -52q0 -24 17.5 -35.5t35.5 -11.5q8 0 16 1t24 7t29 17t26 34t20 54z" />
    <glyph glyph-name="guillemotleft" unicode="&#xab;" 
d="M365 257l78 -222h-66l-102 233l194 210h73zM171 257l78 -222h-66l-102 233l194 210h73z" />
    <glyph glyph-name="logicalnot" unicode="&#xac;" horiz-adv-x="584" 
d="M572 203h-82v218h-392v82h474v-300z" />
    <glyph glyph-name="registered" unicode="&#xae;" horiz-adv-x="737" 
d="M251 156v396h137q98 0 131 -28q38 -31 38 -79q0 -39 -28.5 -73.5t-84.5 -37.5v-2q20 -7 39 -26t53 -73l48 -77h-78l-35 62q-37 66 -58.5 86t-59.5 20h-38v-168h-64zM315 498v-119h78q96 0 96 60q0 17 -7.5 29t-16.5 17.5t-25 8.5t-25.5 3.5t-26.5 0.5h-73zM413 728
q152 0 260 -107.5t108 -260.5t-107.5 -261t-260.5 -108t-261 108t-108 261t108.5 260.5t260.5 107.5zM412 667q-128 0 -217.5 -89.5t-89.5 -217.5t90 -218t217 -90q128 0 218 90t90 218q0 127 -90 217t-218 90z" />
    <glyph glyph-name="macron" unicode="&#xaf;" horiz-adv-x="333" 
d="M98 615l14 68h304l-15 -68h-303z" />
    <glyph glyph-name="degree" unicode="&#xb0;" horiz-adv-x="400" 
d="M142 593q0 56 39.5 95.5t95.5 39.5t95.5 -39.5t39.5 -95.5q0 -57 -39.5 -96.5t-95.5 -39.5t-95.5 39.5t-39.5 96.5zM195 593q0 -34 24 -58.5t58 -24.5t58 24.5t24 58.5t-24 58t-58 24t-58 -24t-24 -58z" />
    <glyph glyph-name="plusminus" unicode="&#xb1;" horiz-adv-x="584" 
d="M294 137v196h-196v82h196v196h82v-196h196v-82h-196v-196h-82zM572 0h-474v82h474v-82z" />
    <glyph glyph-name="twosuperior" unicode="&#xb2;" horiz-adv-x="333" 
d="M184 610l-74 7q30 108 155 108q70 0 103 -30.5t33 -72.5q0 -41 -26 -69.5t-77 -58.5q-56 -33 -75.5 -46.5t-32.5 -30.5h185l-12 -59h-289q14 48 50.5 91t124.5 93q45 25 61.5 40t16.5 38q0 19 -15.5 32.5t-44.5 13.5q-33 0 -53 -12.5t-30 -43.5z" />
    <glyph glyph-name="threesuperior" unicode="&#xb3;" horiz-adv-x="333" 
d="M82 454l70 8q22 -54 80 -54q41 0 57.5 20t16.5 41q0 49 -68 49h-20l11 53q96 2 96 55q0 22 -17.5 34t-42.5 12q-24 0 -40.5 -9.5t-21.5 -18t-11 -22.5l-72 9q13 46 51.5 70t93.5 24q58 0 96.5 -25.5t38.5 -70.5q0 -68 -82 -85v-2q13 -5 21 -9.5t20 -14t18 -24t6 -34.5
q0 -46 -42 -78.5t-107 -32.5q-58 0 -98.5 29t-53.5 76z" />
    <glyph glyph-name="acute" unicode="&#xb4;" horiz-adv-x="333" 
d="M169 581l91 135h112l-130 -135h-73z" />
    <glyph glyph-name="mu" unicode="&#xb5;" 
d="M143 518h88l-52 -243q0 -1 -0.5 -3t-1.5 -5.5t-1 -5.5q-16 -69 -16 -111q0 -41 27.5 -64.5t69.5 -23.5q37 0 72 20t51 55q18 40 32 102l59 279h88l-108 -518h-82l8 39l-2 2q-58 -53 -128 -53q-30 0 -56 12.5t-35.5 22t-24.5 26.5l-53 -247h-86z" />
    <glyph glyph-name="paragraph" unicode="&#xb6;" horiz-adv-x="537" 
d="M265 -199v510q-96 6 -146.5 62.5t-50.5 136.5q0 60 27.5 110t80.5 73q52 23 122 23h309v-81h-70v-834h-81v834h-110v-834h-81z" />
    <glyph glyph-name="periodcentered" unicode="&#xb7;" horiz-adv-x="278" 
d="M119 302l21 100h100l-21 -100h-100z" />
    <glyph glyph-name="cedilla" unicode="&#xb8;" horiz-adv-x="333" 
d="M123 -73l20 79h68l-11 -44q29 -4 49 -16t27.5 -27t9.5 -24t2 -16q0 -86 -167 -86q-52 0 -83 5l10 55q17 -1 70 -1q85 0 85 34q0 19 -21.5 30t-58.5 11z" />
    <glyph glyph-name="onesuperior" unicode="&#xb9;" horiz-adv-x="333" 
d="M204 358l55 260q-51 -36 -123 -50l13 62q98 31 151 94h54l-76 -366h-74z" />
    <glyph glyph-name="ordmasculine" unicode="&#xba;" horiz-adv-x="365" 
d="M70 522q0 29 11.5 63t33 67t59.5 54.5t85 21.5q72 0 112.5 -44.5t40.5 -107.5q0 -72 -44 -137q-54 -79 -140 -79q-65 0 -110 36q-48 39 -48 126zM142 524q0 -41 12 -62q23 -38 66 -38q53 0 86.5 48.5t33.5 103.5q0 38 -23 63t-58 25q-53 0 -85 -49t-32 -91z" />
    <glyph glyph-name="guillemotright" unicode="&#xbb;" 
d="M222 256l-78 222h66l102 -233l-194 -210h-73zM416 256l-78 222h66l102 -233l-194 -210h-73z" />
    <glyph glyph-name="onequarter" unicode="&#xbc;" horiz-adv-x="834" 
d="M636 -17l15 74h-189l12 59l250 233h58l-49 -236h49l-13 -56h-48l-16 -74h-69zM554 113h108l31 128l-2 2zM88 -25l677 753h85l-684 -753h-78zM204 358l55 260q-51 -36 -123 -50l13 62q16 5 38 14.5t57 32t56 47.5h54l-76 -366h-74z" />
    <glyph glyph-name="onehalf" unicode="&#xbd;" horiz-adv-x="834" 
d="M64 -25l678 753h85l-685 -753h-78zM607 235l-74 7q30 108 155 108q70 0 103 -30.5t33 -72.5q0 -41 -26 -69.5t-77 -58.5q-56 -33 -75.5 -46.5t-32.5 -30.5h185l-12 -59h-289q14 48 50.5 91t124.5 93q26 15 35.5 21t22 16t16.5 19.5t4 21.5q0 19 -15 32.5t-45 13.5
q-33 0 -53 -12.5t-30 -43.5zM204 358l55 260q-51 -36 -123 -50l13 62q98 31 151 94h54l-76 -366h-74z" />
    <glyph glyph-name="threequarters" unicode="&#xbe;" horiz-adv-x="834" 
d="M636 -17l15 74h-189l12 59l250 233h58l-49 -236h49l-13 -56h-48l-16 -74h-69zM554 113h108l31 128l-2 2zM82 454l70 8q22 -54 80 -54q41 0 57.5 20t16.5 41q0 49 -68 49h-20l11 53q96 2 96 55q0 22 -17.5 34t-42.5 12q-24 0 -40.5 -9.5t-21.5 -18t-11 -22.5l-72 9
q13 46 51.5 70t93.5 24q58 0 96.5 -25.5t38.5 -70.5q0 -68 -82 -85v-2q13 -5 21 -9.5t20 -14t18 -24t6 -34.5q0 -46 -42 -78.5t-107 -32.5q-58 0 -98.5 29t-53.5 76zM102 -25l677 753h85l-684 -753h-78z" />
    <glyph glyph-name="questiondown" unicode="&#xbf;" horiz-adv-x="611" 
d="M399 13l89 -15q-21 -101 -76 -151q-62 -57 -152 -57q-91 0 -148.5 50.5t-57.5 124.5q0 32 10 59.5t36.5 56.5t46.5 46.5t64 53.5q65 52 84 81t27 77h83q-4 -40 -15.5 -71t-35 -58.5t-42 -45t-56.5 -47.5q-34 -28 -54 -46.5t-40 -50.5t-20 -61q0 -40 33 -68.5t83 -28.5
q121 0 141 151zM449 518l-21 -100h-100l21 100h100z" />
    <glyph glyph-name="Agrave" unicode="&#xc0;" horiz-adv-x="667" 
d="M-20 0l406 716h113l118 -716h-93l-35 206h-289l-115 -206h-105zM358 492l-117 -212h236l-27 179q-18 116 -19 179h-2q-25 -64 -71 -146zM448 765l-95 135h107l57 -135h-69z" />
    <glyph glyph-name="Aacute" unicode="&#xc1;" horiz-adv-x="667" 
d="M-20 0l406 716h113l118 -716h-93l-35 206h-289l-115 -206h-105zM358 492l-117 -212h236l-27 179q-18 116 -19 179h-2q-25 -64 -71 -146zM376 765l91 135h112l-130 -135h-73z" />
    <glyph glyph-name="Acircumflex" unicode="&#xc2;" horiz-adv-x="667" 
d="M-20 0l406 716h113l118 -716h-93l-35 206h-289l-115 -206h-105zM358 492l-117 -212h236l-27 179q-18 116 -19 179h-2q-25 -64 -71 -146zM307 765l130 135h97l61 -135h-78l-39 87l-80 -87h-91z" />
    <glyph glyph-name="Atilde" unicode="&#xc3;" horiz-adv-x="667" 
d="M-20 0l406 716h113l118 -716h-93l-35 206h-289l-115 -206h-105zM358 492l-117 -212h236l-27 179q-18 116 -19 179h-2q-25 -64 -71 -146zM552 895h59q-4 -43 -29.5 -75t-66.5 -32q-20 0 -50 13q-12 5 -46 19q-26 10 -37 10q-31 0 -40 -41h-61q14 55 32 79q24 30 67 30
q28 0 82 -24q38 -17 55 -17q24 0 35 38z" />
    <glyph glyph-name="Adieresis" unicode="&#xc4;" horiz-adv-x="667" 
d="M-20 0l406 716h113l118 -716h-93l-35 206h-289l-115 -206h-105zM358 492l-117 -212h236l-27 179q-18 116 -19 179h-2q-25 -64 -71 -146zM503 783l21 100h92l-21 -100h-92zM323 783l21 100h92l-21 -100h-92z" />
    <glyph glyph-name="Aring" unicode="&#xc5;" horiz-adv-x="667" 
d="M-20 0l406 716h113l118 -716h-93l-35 206h-289l-115 -206h-105zM358 492l-117 -212h236l-27 179q-18 116 -19 179h-2q-25 -64 -71 -146zM367 847q0 37 26 63t63 26t63 -26t26 -63t-26.5 -63t-62.5 -26t-62.5 26t-26.5 63zM404 846q0 -21 15.5 -36t36.5 -15q22 0 37 14.5
t15 36.5t-15 37.5t-37 15.5t-37 -15.5t-15 -37.5z" />
    <glyph glyph-name="AE" unicode="&#xc6;" horiz-adv-x="1000" 
d="M-40 0l440 716h644l-17 -81h-370l-46 -223h374l-17 -81h-374l-52 -250h412l-17 -81h-513l43 204h-276l-123 -204h-108zM454 635l-214 -350h244l73 350h-103z" />
    <glyph glyph-name="Ccedilla" unicode="&#xc7;" horiz-adv-x="722" 
d="M395 -12l-13 -29q72 -12 72 -69q0 -14 -6 -28.5t-23 -32t-57.5 -28.5t-99.5 -11q-52 0 -83 5l23 55q17 -1 28.5 -1.5t15.5 -0.5q25 0 39.5 1t35.5 4t31.5 12.5t10.5 23.5q0 35 -71 36l31 66q-122 17 -179.5 98t-57.5 207q0 182 105 307t269 125q30 0 60 -5t65.5 -20.5
t63.5 -39.5t49.5 -65.5t27.5 -94.5l-90 -8q-27 154 -172 154q-87 0 -153 -52.5t-98 -132.5t-32 -170q0 -66 19 -113.5t50.5 -70.5t62.5 -33t64 -10q50 0 91.5 20t67 52t40 59.5t22.5 53.5l95 -13q-23 -63 -57.5 -111t-67 -73t-71 -41t-61.5 -20t-47 -6z" />
    <glyph glyph-name="Egrave" unicode="&#xc8;" horiz-adv-x="667" 
d="M45 0l150 716h516l-17 -81h-421l-46 -224h409l-17 -81h-409l-52 -249h450l-17 -81h-546zM448 765l-95 135h107l57 -135h-69z" />
    <glyph glyph-name="Eacute" unicode="&#xc9;" horiz-adv-x="667" 
d="M45 0l150 716h516l-17 -81h-421l-46 -224h409l-17 -81h-409l-52 -249h450l-17 -81h-546zM376 765l91 135h112l-130 -135h-73z" />
    <glyph glyph-name="Ecircumflex" unicode="&#xca;" horiz-adv-x="667" 
d="M45 0l150 716h516l-17 -81h-421l-46 -224h409l-17 -81h-409l-52 -249h450l-17 -81h-546zM307 765l130 135h97l61 -135h-78l-39 87l-80 -87h-91z" />
    <glyph glyph-name="Edieresis" unicode="&#xcb;" horiz-adv-x="667" 
d="M45 0l150 716h516l-17 -81h-421l-46 -224h409l-17 -81h-409l-52 -249h450l-17 -81h-546zM503 783l21 100h92l-21 -100h-92zM323 783l21 100h92l-21 -100h-92z" />
    <glyph glyph-name="Igrave" unicode="&#xcc;" horiz-adv-x="278" 
d="M56 0l150 716h95l-149 -716h-96zM254 765l-95 135h107l57 -135h-69z" />
    <glyph glyph-name="Iacute" unicode="&#xcd;" horiz-adv-x="278" 
d="M56 0l150 716h95l-149 -716h-96zM182 765l91 135h112l-130 -135h-73z" />
    <glyph glyph-name="Icircumflex" unicode="&#xce;" horiz-adv-x="278" 
d="M56 0l150 716h95l-149 -716h-96zM113 765l130 135h97l61 -135h-78l-39 87l-80 -87h-91z" />
    <glyph glyph-name="Idieresis" unicode="&#xcf;" horiz-adv-x="278" 
d="M56 0l150 716h95l-149 -716h-96zM309 783l21 100h92l-21 -100h-92zM129 783l21 100h92l-21 -100h-92z" />
    <glyph glyph-name="Eth" unicode="&#xd0;" horiz-adv-x="722" 
d="M46 0l70 330h-78l17 81h78l65 305h213q44 0 68 -1.5t60.5 -12t66.5 -32.5q107 -76 107 -246q0 -130 -56.5 -226t-128.5 -143q-83 -55 -225 -55h-257zM211 330l-53 -249h113q147 0 209 46q54 41 95 117.5t41 183.5q0 59 -15.5 100.5t-35 61.5t-54 31t-55 12.5t-55.5 1.5
h-125l-48 -224h203l-18 -81h-202z" />
    <glyph glyph-name="Ntilde" unicode="&#xd1;" horiz-adv-x="722" 
d="M50 0l149 716h93l121 -269q90 -200 129 -338h2q12 91 33 186l88 421h93l-150 -716h-94l-178 413q-52 121 -73 193h-2q-6 -67 -27 -171l-91 -435h-93zM600 895h59q-4 -43 -29.5 -75t-66.5 -32q-20 0 -50 13q-12 5 -46 19q-26 10 -37 10q-31 0 -40 -41h-61q14 55 32 79
q24 30 67 30q28 0 82 -24q38 -17 55 -17q24 0 35 38z" />
    <glyph glyph-name="Ograve" unicode="&#xd2;" horiz-adv-x="778" 
d="M89 300q0 193 111 310.5t269 117.5q139 0 220.5 -89.5t81.5 -231.5q0 -174 -110.5 -296.5t-270.5 -122.5q-137 0 -219 90.5t-82 221.5zM184 295q0 -105 64 -166.5t149 -61.5q119 0 199 106t80 242q0 109 -61 171.5t-146 62.5q-50 0 -99 -22t-91.5 -64t-68.5 -112
t-26 -156zM474 765l-95 135h107l57 -135h-69z" />
    <glyph glyph-name="Oacute" unicode="&#xd3;" horiz-adv-x="778" 
d="M89 300q0 193 111 310.5t269 117.5q139 0 220.5 -89.5t81.5 -231.5q0 -174 -110.5 -296.5t-270.5 -122.5q-137 0 -219 90.5t-82 221.5zM184 295q0 -105 64 -166.5t149 -61.5q119 0 199 106t80 242q0 109 -61 171.5t-146 62.5q-50 0 -99 -22t-91.5 -64t-68.5 -112
t-26 -156zM412 765l91 135h112l-130 -135h-73z" />
    <glyph glyph-name="Ocircumflex" unicode="&#xd4;" horiz-adv-x="778" 
d="M89 300q0 193 111 310.5t269 117.5q139 0 220.5 -89.5t81.5 -231.5q0 -174 -110.5 -296.5t-270.5 -122.5q-137 0 -219 90.5t-82 221.5zM184 295q0 -105 64 -166.5t149 -61.5q119 0 199 106t80 242q0 109 -61 171.5t-146 62.5q-50 0 -99 -22t-91.5 -64t-68.5 -112
t-26 -156zM343 765l130 135h97l61 -135h-78l-39 87l-80 -87h-91z" />
    <glyph glyph-name="Otilde" unicode="&#xd5;" horiz-adv-x="778" 
d="M89 300q0 193 111 310.5t269 117.5q139 0 220.5 -89.5t81.5 -231.5q0 -174 -110.5 -296.5t-270.5 -122.5q-137 0 -219 90.5t-82 221.5zM184 295q0 -105 64 -166.5t149 -61.5q119 0 199 106t80 242q0 109 -61 171.5t-146 62.5q-50 0 -99 -22t-91.5 -64t-68.5 -112
t-26 -156zM598 895h59q-4 -43 -29.5 -75t-66.5 -32q-20 0 -50 13q-12 5 -46 19q-26 10 -37 10q-31 0 -40 -41h-61q14 55 32 79q24 30 67 30q28 0 82 -24q38 -17 55 -17q24 0 35 38z" />
    <glyph glyph-name="Odieresis" unicode="&#xd6;" horiz-adv-x="778" 
d="M89 300q0 193 111 310.5t269 117.5q139 0 220.5 -89.5t81.5 -231.5q0 -174 -110.5 -296.5t-270.5 -122.5q-137 0 -219 90.5t-82 221.5zM184 295q0 -105 64 -166.5t149 -61.5q119 0 199 106t80 242q0 109 -61 171.5t-146 62.5q-50 0 -99 -22t-91.5 -64t-68.5 -112
t-26 -156zM529 783l21 100h92l-21 -100h-92zM349 783l21 100h92l-21 -100h-92z" />
    <glyph glyph-name="multiply" unicode="&#xd7;" horiz-adv-x="584" 
d="M128 200l154 153l-153 154l59 60l154 -154l153 153l58 -59l-152 -153l153 -153l-59 -60l-154 154l-154 -154z" />
    <glyph glyph-name="Oslash" unicode="&#xd8;" horiz-adv-x="778" 
d="M654 671l78 93l43 -38l-79 -95q75 -86 75 -226q0 -171 -110 -294t-271 -123q-105 0 -181 57l-79 -95l-46 38l81 98q-76 90 -76 226q0 108 46 202.5t133.5 154t198.5 59.5q110 0 187 -57zM224 156l372 447q-56 46 -127 46q-119 0 -202 -100.5t-83 -242.5q0 -89 40 -150z
M636 559l-371 -446q60 -46 132 -46q120 0 199.5 106t79.5 242q0 81 -40 144z" />
    <glyph glyph-name="Ugrave" unicode="&#xd9;" horiz-adv-x="722" 
d="M200 716h95l-90 -438q-12 -52 -12 -81q0 -60 47 -94t112 -34q82 0 141 53q52 47 85 202l82 392h96l-88 -419q-5 -26 -9.5 -43.5t-16.5 -53t-26 -60t-38.5 -56t-54 -50.5t-72.5 -32.5t-94 -13.5q-114 0 -186.5 54t-72.5 155q0 37 20 129zM476 765l-95 135h107l57 -135h-69
z" />
    <glyph glyph-name="Uacute" unicode="&#xda;" horiz-adv-x="722" 
d="M200 716h95l-90 -438q-12 -52 -12 -81q0 -60 47 -94t112 -34q82 0 141 53q52 47 85 202l82 392h96l-88 -419q-5 -26 -9.5 -43.5t-16.5 -53t-26 -60t-38.5 -56t-54 -50.5t-72.5 -32.5t-94 -13.5q-114 0 -186.5 54t-72.5 155q0 37 20 129zM404 765l91 135h112l-130 -135
h-73z" />
    <glyph glyph-name="Ucircumflex" unicode="&#xdb;" horiz-adv-x="722" 
d="M200 716h95l-90 -438q-12 -52 -12 -81q0 -60 47 -94t112 -34q82 0 141 53q52 47 85 202l82 392h96l-88 -419q-5 -26 -9.5 -43.5t-16.5 -53t-26 -60t-38.5 -56t-54 -50.5t-72.5 -32.5t-94 -13.5q-114 0 -186.5 54t-72.5 155q0 37 20 129zM335 765l130 135h97l61 -135h-78
l-39 87l-80 -87h-91z" />
    <glyph glyph-name="Udieresis" unicode="&#xdc;" horiz-adv-x="722" 
d="M200 716h95l-90 -438q-12 -52 -12 -81q0 -60 47 -94t112 -34q82 0 141 53q52 47 85 202l82 392h96l-88 -419q-5 -26 -9.5 -43.5t-16.5 -53t-26 -60t-38.5 -56t-54 -50.5t-72.5 -32.5t-94 -13.5q-114 0 -186.5 54t-72.5 155q0 37 20 129zM531 783l21 100h92l-21 -100h-92z
M351 783l21 100h92l-21 -100h-92z" />
    <glyph glyph-name="Yacute" unicode="&#xdd;" horiz-adv-x="667" 
d="M280 0l57 277l-220 439h103l105 -209q37 -72 68 -146q34 64 98 144l168 211h114l-341 -447l-57 -269h-95zM376 765l91 135h112l-130 -135h-73z" />
    <glyph glyph-name="Thorn" unicode="&#xde;" horiz-adv-x="667" 
d="M43 0l150 716h96l-31 -145h204q85 0 124 -22q36 -20 59 -61t23 -93q0 -56 -30 -116.5t-88 -93.5q-71 -40 -201 -40h-179l-31 -145h-96zM242 492l-55 -266h157q102 0 149 28q34 20 57 57t23 82q0 29 -9.5 48.5t-21 29.5t-35.5 15t-38 5.5t-43 0.5h-184z" />
    <glyph glyph-name="germandbls" unicode="&#xdf;" horiz-adv-x="611" 
d="M34 0l106 504q19 94 56 140q30 36 81.5 60t109.5 24q73 0 116.5 -36t43.5 -79q0 -50 -65 -133q-24 -31 -32.5 -43t-16 -27.5t-7.5 -29.5q0 -18 9 -31t46 -50q36 -38 50 -53.5t24.5 -38.5t10.5 -49q0 -68 -58 -119t-136 -51q-104 0 -173 115l74 40q43 -83 98 -83
q41 0 73 32.5t32 68.5q0 20 -11.5 35.5t-51.5 54.5l-26 26q-52 50 -52 92q0 47 79 146q46 58 46 90q0 24 -22.5 39.5t-53.5 15.5q-61 0 -108 -46q-15 -14 -24.5 -34t-14 -36.5t-11.5 -49.5l-103 -494h-89z" />
    <glyph glyph-name="agrave" unicode="&#xe0;" 
d="M186 363l-90 8q13 36 33 65q66 94 204 94q84 0 140 -36t56 -98q0 -37 -13 -97l-29 -128q-13 -61 -13 -101q0 -21 8 -63q2 -2 2 -7h-89q-7 22 -11 65q-86 -77 -178 -77q-68 0 -114 40t-46 110q0 160 235 168q111 4 149 19q11 36 11 60t-13.5 40t-34.5 22.5t-35.5 8.5
t-28.5 2q-110 0 -143 -95zM417 263q-33 -13 -136 -22q-29 -3 -48.5 -6.5t-45 -13.5t-39.5 -30t-14 -49q0 -34 23.5 -60t74.5 -26q41 0 78.5 20t62.5 56q28 41 44 131zM353 581l-95 135h107l57 -135h-69z" />
    <glyph glyph-name="aacute" unicode="&#xe1;" 
d="M186 363l-90 8q13 36 33 65q66 94 204 94q84 0 140 -36t56 -98q0 -37 -13 -97l-29 -128q-13 -61 -13 -101q0 -21 8 -63q2 -2 2 -7h-89q-7 22 -11 65q-86 -77 -178 -77q-68 0 -114 40t-46 110q0 160 235 168q111 4 149 19q11 36 11 60t-13.5 40t-34.5 22.5t-35.5 8.5
t-28.5 2q-110 0 -143 -95zM417 263q-33 -13 -136 -22q-29 -3 -48.5 -6.5t-45 -13.5t-39.5 -30t-14 -49q0 -34 23.5 -60t74.5 -26q41 0 78.5 20t62.5 56q28 41 44 131zM281 581l91 135h112l-130 -135h-73z" />
    <glyph glyph-name="acircumflex" unicode="&#xe2;" 
d="M186 363l-90 8q13 36 33 65q66 94 204 94q84 0 140 -36t56 -98q0 -37 -13 -97l-29 -128q-13 -61 -13 -101q0 -21 8 -63q2 -2 2 -7h-89q-7 22 -11 65q-86 -77 -178 -77q-68 0 -114 40t-46 110q0 160 235 168q111 4 149 19q11 36 11 60t-13.5 40t-34.5 22.5t-35.5 8.5
t-28.5 2q-110 0 -143 -95zM417 263q-33 -13 -136 -22q-29 -3 -48.5 -6.5t-45 -13.5t-39.5 -30t-14 -49q0 -34 23.5 -60t74.5 -26q41 0 78.5 20t62.5 56q28 41 44 131zM212 581l130 135h97l61 -135h-78l-39 87l-80 -87h-91z" />
    <glyph glyph-name="atilde" unicode="&#xe3;" 
d="M186 363l-90 8q13 36 33 65q66 94 204 94q84 0 140 -36t56 -98q0 -37 -13 -97l-29 -128q-13 -61 -13 -101q0 -21 8 -63q2 -2 2 -7h-89q-7 22 -11 65q-86 -77 -178 -77q-68 0 -114 40t-46 110q0 160 235 168q111 4 149 19q11 36 11 60t-13.5 40t-34.5 22.5t-35.5 8.5
t-28.5 2q-110 0 -143 -95zM417 263q-33 -13 -136 -22q-29 -3 -48.5 -6.5t-45 -13.5t-39.5 -30t-14 -49q0 -34 23.5 -60t74.5 -26q41 0 78.5 20t62.5 56q28 41 44 131zM477 711h59q-4 -43 -29.5 -75t-66.5 -32q-20 0 -50 13q-12 5 -46 19q-26 10 -37 10q-31 0 -40 -41h-61
q14 55 32 79q24 30 67 30q28 0 82 -24q38 -17 55 -17q24 0 35 38z" />
    <glyph glyph-name="adieresis" unicode="&#xe4;" 
d="M186 363l-90 8q13 36 33 65q66 94 204 94q84 0 140 -36t56 -98q0 -37 -13 -97l-29 -128q-13 -61 -13 -101q0 -21 8 -63q2 -2 2 -7h-89q-7 22 -11 65q-86 -77 -178 -77q-68 0 -114 40t-46 110q0 160 235 168q111 4 149 19q11 36 11 60t-13.5 40t-34.5 22.5t-35.5 8.5
t-28.5 2q-110 0 -143 -95zM417 263q-33 -13 -136 -22q-29 -3 -48.5 -6.5t-45 -13.5t-39.5 -30t-14 -49q0 -34 23.5 -60t74.5 -26q41 0 78.5 20t62.5 56q28 41 44 131zM408 599l21 100h92l-21 -100h-92zM228 599l21 100h92l-21 -100h-92z" />
    <glyph glyph-name="aring" unicode="&#xe5;" 
d="M186 363l-90 8q13 36 33 65q66 94 204 94q84 0 140 -36t56 -98q0 -37 -13 -97l-29 -128q-13 -61 -13 -101q0 -21 8 -63q2 -2 2 -7h-89q-7 22 -11 65q-86 -77 -178 -77q-68 0 -114 40t-46 110q0 160 235 168q111 4 149 19q11 36 11 60t-13.5 40t-34.5 22.5t-35.5 8.5
t-28.5 2q-110 0 -143 -95zM417 263q-33 -13 -136 -22q-29 -3 -48.5 -6.5t-45 -13.5t-39.5 -30t-14 -49q0 -34 23.5 -60t74.5 -26q41 0 78.5 20t62.5 56q28 41 44 131zM272 663q0 37 26 63t63 26t63 -26t26 -63t-26.5 -63t-62.5 -26t-62.5 26t-26.5 63zM309 662
q0 -21 15.5 -36t36.5 -15q22 0 37 14.5t15 36.5t-15 37.5t-37 15.5t-37 -15.5t-15 -37.5z" />
    <glyph glyph-name="ae" unicode="&#xe6;" horiz-adv-x="889" 
d="M749 175l89 -8q-84 -179 -245 -179q-85 0 -144 57q-25 24 -42 58q-36 -51 -72 -76q-59 -39 -127 -39q-86 0 -124.5 45.5t-38.5 105.5q0 114 110 147q38 11 161 21q68 8 94 16q12 35 12 60q0 42 -26.5 60.5t-66.5 18.5q-38 0 -66.5 -10.5t-45 -29.5t-22.5 -30t-13 -28
l-87 7q27 81 89 120.5t147 39.5q108 0 162 -72q66 71 170 71q97 0 150.5 -62.5t53.5 -153.5q0 -25 -7 -77h-378q-1 -8 -1 -29q0 -75 32 -111t82 -36q97 0 154 114zM397 256q-59 -13 -126 -19q-26 -3 -38 -4.5t-35.5 -7.5t-34.5 -15t-20.5 -26t-9.5 -40q0 -35 23.5 -61
t72.5 -26q35 0 64 16t46 38t30.5 52t18.5 51t9 42zM499 304h285q0 36 -1 42q-6 38 -21 63.5t-34.5 35.5t-33 13.5t-27.5 3.5q-53 0 -101 -44t-67 -114z" />
    <glyph glyph-name="ccedilla" unicode="&#xe7;" horiz-adv-x="500" 
d="M263 -11l-11 -28q32 0 51 -13t23 -25t4 -25q0 -30 -19 -51t-48 -30t-51.5 -12.5t-41.5 -3.5q-23 0 -57 2l18 53q17 -1 38 0t39.5 3.5t31 12t12.5 24.5q0 34 -70 31l26 64q-152 35 -152 203q0 44 8.5 88.5t29.5 89.5t51.5 80t78 56.5t105.5 21.5q31 0 60.5 -8.5t58 -27
t45.5 -53.5t17 -83l-86 -5q0 33 -12 56t-31 32.5t-33 13t-27 3.5q-51 0 -88.5 -31t-54.5 -78.5t-24.5 -88t-7.5 -76.5q0 -68 31.5 -98t69.5 -30q54 0 90 40.5t54 92.5l88 -9q-29 -85 -83 -135t-133 -56z" />
    <glyph glyph-name="egrave" unicode="&#xe8;" 
d="M414 176l86 -9q-19 -64 -85.5 -121.5t-158.5 -57.5q-88 0 -145.5 58t-57.5 162q0 52 16.5 106.5t48.5 103.5t87 80.5t123 31.5q57 0 98.5 -20.5t63.5 -54t32 -68t10 -71.5q0 -32 -7 -79h-382q-2 -20 -2 -27q0 -72 33 -111t82 -39q39 0 85 26.5t73 89.5zM157 305h291
q1 19 0 40q-4 59 -38 88t-80 29q-69 0 -111.5 -47.5t-61.5 -109.5zM353 581l-95 135h107l57 -135h-69z" />
    <glyph glyph-name="eacute" unicode="&#xe9;" 
d="M414 176l86 -9q-19 -64 -85.5 -121.5t-158.5 -57.5q-88 0 -145.5 58t-57.5 162q0 52 16.5 106.5t48.5 103.5t87 80.5t123 31.5q57 0 98.5 -20.5t63.5 -54t32 -68t10 -71.5q0 -32 -7 -79h-382q-2 -20 -2 -27q0 -72 33 -111t82 -39q39 0 85 26.5t73 89.5zM157 305h291
q1 19 0 40q-4 59 -38 88t-80 29q-69 0 -111.5 -47.5t-61.5 -109.5zM281 581l91 135h112l-130 -135h-73z" />
    <glyph glyph-name="ecircumflex" unicode="&#xea;" 
d="M414 176l86 -9q-19 -64 -85.5 -121.5t-158.5 -57.5q-88 0 -145.5 58t-57.5 162q0 52 16.5 106.5t48.5 103.5t87 80.5t123 31.5q57 0 98.5 -20.5t63.5 -54t32 -68t10 -71.5q0 -32 -7 -79h-382q-2 -20 -2 -27q0 -72 33 -111t82 -39q39 0 85 26.5t73 89.5zM157 305h291
q1 19 0 40q-4 59 -38 88t-80 29q-69 0 -111.5 -47.5t-61.5 -109.5zM212 581l130 135h97l61 -135h-78l-39 87l-80 -87h-91z" />
    <glyph glyph-name="edieresis" unicode="&#xeb;" 
d="M414 176l86 -9q-19 -64 -85.5 -121.5t-158.5 -57.5q-88 0 -145.5 58t-57.5 162q0 52 16.5 106.5t48.5 103.5t87 80.5t123 31.5q57 0 98.5 -20.5t63.5 -54t32 -68t10 -71.5q0 -32 -7 -79h-382q-2 -20 -2 -27q0 -72 33 -111t82 -39q39 0 85 26.5t73 89.5zM157 305h291
q1 19 0 40q-4 59 -38 88t-80 29q-69 0 -111.5 -47.5t-61.5 -109.5zM408 599l21 100h92l-21 -100h-92zM228 599l21 100h92l-21 -100h-92z" />
    <glyph glyph-name="igrave" unicode="&#xec;" horiz-adv-x="278" 
d="M59 0l108 518h89l-109 -518h-88zM214 581l-95 135h107l57 -135h-69z" />
    <glyph glyph-name="iacute" unicode="&#xed;" horiz-adv-x="278" 
d="M59 0l108 518h89l-109 -518h-88zM142 581l91 135h112l-130 -135h-73z" />
    <glyph glyph-name="icircumflex" unicode="&#xee;" horiz-adv-x="278" 
d="M59 0l108 518h89l-109 -518h-88zM73 581l130 135h97l61 -135h-78l-39 87l-80 -87h-91z" />
    <glyph glyph-name="idieresis" unicode="&#xef;" horiz-adv-x="278" 
d="M59 0l108 518h89l-109 -518h-88zM269 599l21 100h92l-21 -100h-92zM89 599l21 100h92l-21 -100h-92z" />
    <glyph glyph-name="eth" unicode="&#xf0;" 
d="M308 716h92q31 -29 36 -37l86 37l22 -48l-76 -34q80 -129 80 -290q0 -38 -7 -80.5t-27.5 -93t-50.5 -90t-82 -66t-118 -26.5q-104 0 -158 61t-54 151q0 130 76.5 224t180.5 94q84 0 141 -57l2 2q-12 66 -52 139l-100 -45l-23 49l92 41q-35 45 -60 69zM454 309
q0 71 -37 104t-89 33q-48 0 -86 -24.5t-59 -63t-31.5 -78.5t-10.5 -77q0 -25 5 -47.5t18 -45.5t38.5 -36.5t62.5 -13.5q47 0 85.5 26.5t60 67t32.5 81t11 74.5z" />
    <glyph glyph-name="ntilde" unicode="&#xf1;" 
d="M33 0l109 518h80l-19 -88l2 -2q96 102 188 102q18 0 37.5 -4.5t43.5 -16.5t39 -38.5t15 -65.5q0 -26 -13 -91l-65 -314h-89l69 329q10 46 10 70q0 32 -21 45.5t-48 13.5q-79 0 -135 -64q-41 -44 -64 -153l-50 -241h-89zM477 711h59q-4 -43 -29.5 -75t-66.5 -32
q-20 0 -50 13q-12 5 -46 19q-26 10 -37 10q-31 0 -40 -41h-61q14 55 32 79q24 30 67 30q28 0 82 -24q38 -17 55 -17q24 0 35 38z" />
    <glyph glyph-name="ograve" unicode="&#xf2;" 
d="M51 197q0 139 76 236t206 97q94 0 151.5 -58.5t57.5 -158.5q0 -142 -81 -233.5t-198 -91.5q-90 0 -151 54.5t-61 154.5zM139 206q0 -39 10.5 -68.5t25 -44.5t33.5 -24t31.5 -11t24.5 -2q57 0 102 42t66.5 100t21.5 116q0 63 -32 105.5t-92 42.5t-105.5 -42t-65.5 -99
t-20 -115zM353 581l-95 135h107l57 -135h-69z" />
    <glyph glyph-name="oacute" unicode="&#xf3;" 
d="M51 197q0 139 76 236t206 97q94 0 151.5 -58.5t57.5 -158.5q0 -142 -81 -233.5t-198 -91.5q-90 0 -151 54.5t-61 154.5zM139 206q0 -39 10.5 -68.5t25 -44.5t33.5 -24t31.5 -11t24.5 -2q57 0 102 42t66.5 100t21.5 116q0 63 -32 105.5t-92 42.5t-105.5 -42t-65.5 -99
t-20 -115zM281 581l91 135h112l-130 -135h-73z" />
    <glyph glyph-name="ocircumflex" unicode="&#xf4;" 
d="M51 197q0 139 76 236t206 97q94 0 151.5 -58.5t57.5 -158.5q0 -142 -81 -233.5t-198 -91.5q-90 0 -151 54.5t-61 154.5zM139 206q0 -39 10.5 -68.5t25 -44.5t33.5 -24t31.5 -11t24.5 -2q57 0 102 42t66.5 100t21.5 116q0 63 -32 105.5t-92 42.5t-105.5 -42t-65.5 -99
t-20 -115zM212 581l130 135h97l61 -135h-78l-39 87l-80 -87h-91z" />
    <glyph glyph-name="otilde" unicode="&#xf5;" 
d="M51 197q0 139 76 236t206 97q94 0 151.5 -58.5t57.5 -158.5q0 -142 -81 -233.5t-198 -91.5q-90 0 -151 54.5t-61 154.5zM139 206q0 -39 10.5 -68.5t25 -44.5t33.5 -24t31.5 -11t24.5 -2q57 0 102 42t66.5 100t21.5 116q0 63 -32 105.5t-92 42.5t-105.5 -42t-65.5 -99
t-20 -115zM477 711h59q-4 -43 -29.5 -75t-66.5 -32q-20 0 -50 13q-12 5 -46 19q-26 10 -37 10q-31 0 -40 -41h-61q14 55 32 79q24 30 67 30q28 0 82 -24q38 -17 55 -17q24 0 35 38z" />
    <glyph glyph-name="odieresis" unicode="&#xf6;" 
d="M51 197q0 139 76 236t206 97q94 0 151.5 -58.5t57.5 -158.5q0 -142 -81 -233.5t-198 -91.5q-90 0 -151 54.5t-61 154.5zM139 206q0 -39 10.5 -68.5t25 -44.5t33.5 -24t31.5 -11t24.5 -2q57 0 102 42t66.5 100t21.5 116q0 63 -32 105.5t-92 42.5t-105.5 -42t-65.5 -99
t-20 -115zM408 599l21 100h92l-21 -100h-92zM228 599l21 100h92l-21 -100h-92z" />
    <glyph glyph-name="divide" unicode="&#xf7;" horiz-adv-x="584" 
d="M572 312h-474v82h474v-82zM285 460v100h100v-100h-100zM285 146v100h100v-100h-100z" />
    <glyph glyph-name="oslash" unicode="&#xf8;" horiz-adv-x="611" 
d="M481 497l55 69l44 -35l-57 -72q46 -58 46 -148q0 -138 -80 -230.5t-200 -92.5q-63 0 -119 31l-55 -69l-44 34l56 70q-49 58 -49 149q0 57 16.5 112.5t49 104.5t89 79.5t127.5 30.5q67 0 121 -33zM182 123l250 313q-30 26 -75 26q-62 0 -107.5 -43.5t-64.5 -100.5
t-19 -114q0 -49 16 -81zM467 389l-249 -310q33 -23 72 -23q57 0 102.5 42t67 100t21.5 116q0 40 -14 75z" />
    <glyph glyph-name="ugrave" unicode="&#xf9;" 
d="M81 219l62 299h88l-70 -331q-9 -43 -9 -64q0 -28 17 -43.5t29.5 -17.5t25.5 -2q62 0 118 52q25 24 42 56.5t24 57.5t16 68l47 224h88l-108 -518h-82l20 92l-2 2q-89 -106 -189 -106q-55 0 -94.5 32.5t-39.5 86.5q0 27 17 112zM353 581l-95 135h107l57 -135h-69z" />
    <glyph glyph-name="uacute" unicode="&#xfa;" 
d="M81 219l62 299h88l-70 -331q-9 -43 -9 -64q0 -28 17 -43.5t29.5 -17.5t25.5 -2q62 0 118 52q25 24 42 56.5t24 57.5t16 68l47 224h88l-108 -518h-82l20 92l-2 2q-89 -106 -189 -106q-55 0 -94.5 32.5t-39.5 86.5q0 27 17 112zM281 581l91 135h112l-130 -135h-73z" />
    <glyph glyph-name="ucircumflex" unicode="&#xfb;" 
d="M81 219l62 299h88l-70 -331q-9 -43 -9 -64q0 -28 17 -43.5t29.5 -17.5t25.5 -2q62 0 118 52q25 24 42 56.5t24 57.5t16 68l47 224h88l-108 -518h-82l20 92l-2 2q-89 -106 -189 -106q-55 0 -94.5 32.5t-39.5 86.5q0 27 17 112zM212 581l130 135h97l61 -135h-78l-39 87
l-80 -87h-91z" />
    <glyph glyph-name="udieresis" unicode="&#xfc;" 
d="M81 219l62 299h88l-70 -331q-9 -43 -9 -64q0 -28 17 -43.5t29.5 -17.5t25.5 -2q62 0 118 52q25 24 42 56.5t24 57.5t16 68l47 224h88l-108 -518h-82l20 92l-2 2q-89 -106 -189 -106q-55 0 -94.5 32.5t-39.5 86.5q0 27 17 112zM408 599l21 100h92l-21 -100h-92zM228 599
l21 100h92l-21 -100h-92z" />
    <glyph glyph-name="yacute" unicode="&#xfd;" horiz-adv-x="500" 
d="M0 -200l5 83q24 -8 53 -8q27 0 46.5 15t44.5 58l28 50l-86 520h87l39 -262q12 -79 19 -155h2l231 417h92l-330 -587q-18 -33 -30.5 -51.5t-34 -42.5t-48 -35.5t-58.5 -11.5t-60 10zM253 581l91 135h112l-130 -135h-73z" />
    <glyph glyph-name="thorn" unicode="&#xfe;" 
d="M-8 -199l191 915h89l-55 -258l2 -2q71 74 146 74q76 0 124 -55t48 -154q0 -138 -77 -235.5t-177 -97.5q-93 0 -144 95l-59 -282h-88zM166 211q0 -32 1.5 -48t10.5 -38t27 -38q29 -27 74 -27q44 0 78.5 29.5t53.5 72.5t28.5 84.5t9.5 73.5q0 58 -28.5 98t-81.5 40
q-83 0 -133 -100q-40 -77 -40 -147z" />
    <glyph glyph-name="ydieresis" unicode="&#xff;" horiz-adv-x="500" 
d="M0 -200l5 83q24 -8 53 -8q27 0 46.5 15t44.5 58l28 50l-86 520h87l39 -262q12 -79 19 -155h2l231 417h92l-330 -587q-18 -33 -30.5 -51.5t-34 -42.5t-48 -35.5t-58.5 -11.5t-60 10zM380 599l21 100h92l-21 -100h-92zM200 599l21 100h92l-21 -100h-92z" />
    <glyph glyph-name="dotlessi" unicode="&#x131;" horiz-adv-x="278" 
d="M59 0l108 518h89l-109 -518h-88z" />
    <glyph glyph-name="Lslash" unicode="&#x141;" 
d="M105 294l-91 -51l17 83l91 50l71 340h96l-59 -279l191 105l-17 -81l-191 -107l-57 -273h370l-17 -81h-466z" />
    <glyph glyph-name="lslash" unicode="&#x142;" horiz-adv-x="222" 
d="M94 304l-74 -39l15 76l75 39l70 336h88l-59 -283l77 41l-16 -76l-77 -41l-74 -357h-89z" />
    <glyph glyph-name="OE" unicode="&#x152;" horiz-adv-x="1000" 
d="M620 631l18 85h406l-17 -82h-310l-47 -226h313l-17 -81h-313l-52 -246h347l-17 -81h-442l11 51l-2 2q-62 -65 -164 -65q-111 0 -182.5 76.5t-71.5 224.5q0 187 103 313t253 126q116 0 184 -97zM175 300q0 -114 35 -166q20 -29 55.5 -48t76.5 -19q133 0 192 162
q16 43 33.5 133.5t17.5 127.5q0 72 -46.5 115.5t-109.5 43.5q-74 0 -134 -57t-90 -136t-30 -156z" />
    <glyph glyph-name="oe" unicode="&#x153;" horiz-adv-x="944" 
d="M908 236h-375q-2 -18 -2 -33q0 -29 8.5 -59t36.5 -57t70 -27q52 0 91.5 37.5t57.5 78.5l91 -9q-31 -72 -94.5 -125.5t-146.5 -53.5q-123 0 -176 101q-17 -19 -29 -30.5t-38 -31t-61 -29.5t-76 -10q-87 0 -145.5 53.5t-58.5 162.5q0 59 17.5 116t50 104.5t86 76.5
t120.5 29q126 0 181 -97q20 21 34 33.5t39 29.5t56.5 25.5t68.5 8.5q92 0 147.5 -59.5t55.5 -154.5q0 -37 -9 -80zM147 209q0 -20 2.5 -37.5t12 -48t36.5 -49t68 -18.5q45 0 82.5 26.5t60 67.5t34.5 86t12 87q0 30 -9.5 59.5t-38 54.5t-71.5 25q-50 0 -89 -27.5t-59.5 -69.5
t-30.5 -82t-10 -74zM547 304h284q4 43 -5.5 75t-23.5 47.5t-34.5 24t-31 10t-21.5 1.5q-45 0 -92 -36t-76 -122z" />
    <glyph glyph-name="Scaron" unicode="&#x160;" horiz-adv-x="667" 
d="M71 232l93 8q-1 -39 4 -60q28 -113 182 -113q83 0 129.5 36.5t46.5 87.5q0 44 -34.5 70.5t-122.5 65.5q-32 14 -45.5 20t-41.5 20.5t-40.5 24t-32 26.5t-28 33t-15.5 38.5t-7 47.5q0 88 69.5 139.5t181.5 51.5q72 0 126 -20t82.5 -52.5t41.5 -68.5t11 -74l-93 -7
q0 20 -3 38q-12 56 -59.5 80.5t-109.5 24.5q-21 0 -44 -4t-49.5 -14.5t-43.5 -33.5t-17 -55q0 -43 31 -67t120 -63q52 -23 77 -34.5t58.5 -32.5t48 -39t25.5 -46t11 -62q0 -89 -76 -149.5t-200 -60.5q-79 0 -149 25.5t-100 84.5q-27 52 -27 134zM603 900l-130 -135h-97
l-61 135h78l39 -87l80 87h91z" />
    <glyph glyph-name="scaron" unicode="&#x161;" horiz-adv-x="500" 
d="M38 177l89 6q0 -127 128 -127q50 0 83.5 21.5t33.5 57.5q0 31 -25.5 51t-81.5 44q-36 16 -51.5 23t-40 22t-35 28t-19 33t-8.5 45q0 56 45.5 102.5t139.5 46.5q33 0 64 -7t63.5 -23.5t53 -51t21.5 -82.5l-88 -5q-1 34 -17 57t-39.5 31t-37.5 10.5t-26 2.5
q-45 0 -71 -20.5t-26 -45.5q0 -20 13 -34.5t29 -23t56 -25.5q47 -20 68.5 -31t50 -31.5t40 -45.5t11.5 -59q0 -63 -55 -110.5t-156 -47.5q-21 0 -42 2.5t-54.5 13.5t-58 29.5t-42 56t-15.5 87.5zM500 716l-130 -135h-97l-61 135h78l39 -87l80 87h91z" />
    <glyph glyph-name="Ydieresis" unicode="&#x178;" horiz-adv-x="667" 
d="M280 0l57 277l-220 439h103l105 -209q37 -72 68 -146q34 64 98 144l168 211h114l-341 -447l-57 -269h-95zM503 783l21 100h92l-21 -100h-92zM323 783l21 100h92l-21 -100h-92z" />
    <glyph glyph-name="Zcaron" unicode="&#x17d;" horiz-adv-x="611" 
d="M23 0l9 72l358 428q8 9 24.5 29t19.5 24q64 76 74 86l-2 2q-35 -5 -61 -5l-80 -1h-241l17 81h494l-8 -75l-384 -457q-3 -2 -17 -20q-3 -3 -6.5 -7t-6 -6.5l-3.5 -3.5q-44 -53 -58 -66l2 -2q20 3 27 3l53 -1h336l-17 -81h-530zM575 900l-130 -135h-97l-61 135h78l39 -87
l80 87h91z" />
    <glyph glyph-name="zcaron" unicode="&#x17e;" horiz-adv-x="500" 
d="M20 0l14 68l279 314q36 40 66 68l-2 2l-29 -3q-33 -3 -59 -3h-193l15 72h401l-11 -55l-282 -316q-24 -27 -71 -74l38 3q23 2 63 2h204l-16 -78h-417zM500 716l-130 -135h-97l-61 135h78l39 -87l80 87h91z" />
    <glyph glyph-name="florin" unicode="&#x192;" 
d="M47 -198l16 76q52 -11 75 -11q18 0 29.5 5.5t18 19t8.5 21.5t6 29l87 498h-98l11 68h99l11 66q4 24 7.5 39.5t13.5 37.5t23.5 35.5t38 23t56.5 9.5q41 0 96 -17l9 -2l-17 -75q-54 12 -75 12q-33 0 -44 -17t-20 -61l-10 -51h100l-12 -68h-100l-93 -523q-12 -67 -40.5 -97
t-86.5 -30q-46 0 -109 12z" />
    <glyph glyph-name="circumflex" unicode="&#x2c6;" horiz-adv-x="333" 
d="M100 581l130 135h97l61 -135h-78l-39 87l-80 -87h-91z" />
    <glyph glyph-name="caron" unicode="&#x2c7;" horiz-adv-x="333" 
d="M416 716l-130 -135h-97l-61 135h78l39 -87l80 87h91z" />
    <glyph glyph-name="breve" unicode="&#x2d8;" horiz-adv-x="333" 
d="M107 710h58q5 -30 14 -43q20 -26 62 -26q73 0 100 69h58q-13 -47 -52.5 -87.5t-108.5 -40.5q-61 0 -95 36.5t-36 91.5z" />
    <glyph glyph-name="dotaccent" unicode="&#x2d9;" horiz-adv-x="333" 
d="M204 599l21 100h92l-21 -100h-92z" />
    <glyph glyph-name="ring" unicode="&#x2da;" horiz-adv-x="333" 
d="M160 663q0 37 26 63t63 26t63 -26t26 -63t-26.5 -63t-62.5 -26t-62.5 26t-26.5 63zM197 662q0 -21 15.5 -36t36.5 -15q22 0 37 14.5t15 36.5t-15 37.5t-37 15.5t-37 -15.5t-15 -37.5z" />
    <glyph glyph-name="ogonek" unicode="&#x2db;" horiz-adv-x="333" 
d="M97 13h54q-28 -70 -28 -98q0 -24 13 -38t23.5 -17t19.5 -3q32 0 86 22l-12 -59q-51 -27 -104 -27q-28 0 -47 9.5t-27 25t-11 28t-3 26.5q0 57 36 131z" />
    <glyph glyph-name="tilde" unicode="&#x2dc;" horiz-adv-x="333" 
d="M365 711h59q-4 -43 -29.5 -75t-66.5 -32q-20 0 -50 13q-12 5 -46 19q-26 10 -37 10q-31 0 -40 -41h-61q14 55 32 79q24 30 67 30q28 0 82 -24q38 -17 55 -17q24 0 35 38z" />
    <glyph glyph-name="hungarumlaut" unicode="&#x2dd;" horiz-adv-x="333" 
d="M86 581l91 135h112l-130 -135h-73zM251 581l91 135h112l-130 -135h-73z" />
    <glyph glyph-name="endash" unicode="&#x2013;" 
d="M18 224v71h564v-71h-564z" />
    <glyph glyph-name="emdash" unicode="&#x2014;" horiz-adv-x="1000" 
d="M23 224v71h1012v-71h-1012z" />
    <glyph glyph-name="quoteleft" unicode="&#x2018;" horiz-adv-x="222" 
d="M252 583l-21 -100h-101l18 87q29 145 134 158l-8 -39q-58 -14 -77 -106h55z" />
    <glyph glyph-name="quoteright" unicode="&#x2019;" horiz-adv-x="222" 
d="M156 616l21 100h101l-18 -87q-29 -145 -134 -158l8 39q58 14 77 106h-55z" />
    <glyph glyph-name="quotesinglbase" unicode="&#x201a;" horiz-adv-x="222" 
d="M24 0l21 100h101l-18 -87q-33 -145 -134 -158l8 39q58 14 77 106h-55z" />
    <glyph glyph-name="quotedblleft" unicode="&#x201c;" horiz-adv-x="333" 
d="M384 583l-21 -100h-101l18 87q29 145 134 158l-8 -39q-58 -14 -77 -106h55zM225 583l-21 -100h-101l18 87q29 145 134 158l-8 -39q-58 -14 -77 -106h55z" />
    <glyph glyph-name="quotedblright" unicode="&#x201d;" horiz-adv-x="333" 
d="M136 616l21 100h101l-18 -87q-29 -145 -134 -158l8 39q58 14 77 106h-55zM295 616l21 100h101l-18 -87q-29 -145 -134 -158l8 39q58 14 77 106h-55z" />
    <glyph glyph-name="quotedblbase" unicode="&#x201e;" horiz-adv-x="333" 
d="M11 0l21 100h101l-18 -87q-29 -145 -134 -158l8 39q58 14 77 106h-55zM170 0l21 100h101l-18 -87q-29 -145 -134 -158l8 39q58 14 77 106h-55z" />
    <glyph glyph-name="dagger" unicode="&#x2020;" 
d="M162 -170l124 594h-195l15 74h195l44 208h88l-43 -208h193l-15 -74h-194l-124 -594h-88z" />
    <glyph glyph-name="daggerdbl" unicode="&#x2021;" 
d="M162 -170l38 183h-195l16 74h195l74 359h-195l16 77h195l39 183h88l-38 -183h194l-18 -77h-192l-75 -359h193l-16 -74h-193l-38 -183h-88z" />
    <glyph glyph-name="bullet" unicode="&#x2022;" horiz-adv-x="350" 
d="M220 475q-51 0 -87.5 -36.5t-36.5 -87.5t36.5 -87.5t87.5 -36.5t87.5 36.5t36.5 87.5t-36.5 87.5t-87.5 36.5z" />
    <glyph glyph-name="ellipsis" unicode="&#x2026;" horiz-adv-x="1000" 
d="M478 0l21 100h99l-21 -100h-99zM812 0l21 100h99l-21 -100h-99zM144 0l21 100h99l-21 -100h-99z" />
    <glyph glyph-name="perthousand" unicode="&#x2030;" horiz-adv-x="1000" 
d="M137 485q0 -76 53 -76q28 0 50 24.5t32.5 59.5t15.5 63.5t5 46.5q0 66 -53 66q-30 0 -52.5 -26.5t-32.5 -62.5t-14 -60.5t-4 -34.5zM98 -27l464 755h74l-465 -755h-73zM65 487q0 62 26 128q45 113 151 113q58 0 90.5 -34.5t32.5 -93.5q0 -19 -3.5 -45t-15 -63.5
t-29.5 -67.5t-51.5 -52t-76.5 -22q-35 0 -60.5 12.5t-37 28t-18 38.5t-7.5 34t-1 24zM368 110q0 62 26 128q45 113 151 113q58 0 90.5 -34.5t32.5 -93.5q0 -19 -3.5 -45t-15 -63.5t-29.5 -67.5t-51.5 -52t-76.5 -22q-35 0 -60.5 12.5t-37 28t-18 38.5t-7.5 34t-1 24z
M440 108q0 -76 53 -76q28 0 50 24.5t32.5 59.5t15.5 63.5t5 46.5q0 66 -53 66q-30 0 -52.5 -26.5t-32.5 -62.5t-14 -60.5t-4 -34.5zM704 110q0 62 26 128q45 113 151 113q57 0 89.5 -34.5t32.5 -93.5q0 -25 -6.5 -60t-23 -81t-54.5 -77.5t-91 -31.5q-35 0 -60.5 12.5t-37 28
t-18 38.5t-7.5 34t-1 24zM776 108q0 -76 53 -76q28 0 49.5 24.5t32 59.5t15.5 63.5t5 46.5q0 66 -52 66q-30 0 -52.5 -26.5t-32.5 -62.5t-14 -60.5t-4 -34.5z" />
    <glyph glyph-name="guilsinglleft" unicode="&#x2039;" horiz-adv-x="333" 
d="M137 257l78 -222h-66l-102 233l194 210h73z" />
    <glyph glyph-name="guilsinglright" unicode="&#x203a;" horiz-adv-x="333" 
d="M196 256l-78 222h66l102 -233l-194 -210h-73z" />
    <glyph glyph-name="fraction" unicode="&#x2044;" horiz-adv-x="167" 
d="M-261 -30l681 758h85l-688 -758h-78z" />
    <glyph glyph-name="Euro" unicode="&#x20ac;" 
d="M374 -12q-128 0 -201 72t-81 201h-52l13 66h39q2 36 7 64h-59l13 66h62q39 121 132 196t217 75q111 0 181 -58l-41 -83q-44 62 -135 62q-89 0 -154 -52.5t-99 -139.5h307l-14 -66h-313q-5 -20 -9 -64h309l-15 -66h-294q7 -88 57 -141t137 -53q77 0 135 48l-22 -104
q-55 -23 -120 -23z" />
    <glyph glyph-name="trademark" unicode="&#x2122;" horiz-adv-x="1000" 
d="M283 318v339h-129v59h325v-59h-130v-339h-66zM524 318v398h98l99 -318h2l96 318h96v-398h-61v334h-2l-100 -334h-60l-105 339h-2v-339h-61z" />
    <glyph glyph-name="minus" unicode="&#x2212;" horiz-adv-x="584" 
d="M572 312h-474v82h474v-82z" />
    <glyph glyph-name="fi" unicode="&#xfb01;" horiz-adv-x="500" 
d="M54 0l94 450h-79l14 68h79l15 74q7 34 13 52t20.5 41t41 33t66.5 10q28 0 98 -14l-16 -77q-56 12 -75 12q-17 0 -28 -4.5t-17.5 -17t-9.5 -22t-8 -31.5l-12 -56h99l-14 -68h-99l-94 -450h-88zM307 0l109 518h88l-109 -518h-88zM435 612l22 104h88l-22 -104h-88z" />
    <glyph glyph-name="fl" unicode="&#xfb02;" horiz-adv-x="500" 
d="M54 0l94 450h-79l14 68h79l15 74q7 34 13 52t20.5 41t41 33t66.5 10q28 0 98 -14l-16 -77q-56 12 -75 12q-17 0 -28 -4.5t-17.5 -17t-9.5 -22t-8 -31.5l-12 -56h99l-14 -68h-99l-94 -450h-88zM307 0l150 716h88l-150 -716h-88z" />
    </font>
</defs>
</svg>
